<?xml version="1.0" encoding="UTF-8"?>
<svg width="18px" height="18px" viewBox="0 0 18 18" version="1.1" xmlns="http://www.w3.org/2000/svg" xmlns:xlink="http://www.w3.org/1999/xlink">
    <title>page</title>
    <g id="Page-1" stroke="none" stroke-width="1" fill="none" fill-rule="evenodd">
        <g id="4" transform="translate(-730.000000, -41.000000)" fill="#FFFFFF" fill-rule="nonzero">
            <g id="Group-6-Copy" transform="translate(401.000000, 30.000000)">
                <g transform="translate(318.000000, 0.000000)">
                    <g id="page" transform="translate(11.000000, 11.000000)">
                        <path d="M13.78125,18 L4.21875,18 C1.89253125,18 0,16.1074687 0,13.78125 L0,4.21875 C0,1.89253125 1.89253125,0 4.21875,0 L13.78125,0 C16.1074687,0 18,1.89253125 18,4.21875 L18,13.78125 C18,16.1074687 16.1074687,18 13.78125,18 Z M4.21875,1.40625 C2.6679375,1.40625 1.40625,2.6679375 1.40625,4.21875 L1.40625,13.78125 C1.40625,15.3320625 2.6679375,16.59375 4.21875,16.59375 L13.78125,16.59375 C15.3320625,16.59375 16.59375,15.3320625 16.59375,13.78125 L16.59375,4.21875 C16.59375,2.6679375 15.3320625,1.40625 13.78125,1.40625 L4.21875,1.40625 Z M15.1875,4.53515625 C15.1875,4.14682031 14.8727109,3.83203125 14.484375,3.83203125 L3.515625,3.83203125 C3.12728906,3.83203125 2.8125,4.14682031 2.8125,4.53515625 C2.8125,4.92349219 3.12728906,5.23828125 3.515625,5.23828125 L14.484375,5.23828125 C14.8727109,5.23828125 15.1875,4.92349219 15.1875,4.53515625 Z M15.2226562,11.109375 C15.2226562,10.7210391 14.9078672,10.40625 14.5195312,10.40625 L10.40625,10.40625 C10.0179141,10.40625 9.703125,10.7210391 9.703125,11.109375 C9.703125,11.4977109 10.0179141,11.8125 10.40625,11.8125 L14.5195312,11.8125 C14.9078672,11.8125 15.2226562,11.4977109 15.2226562,11.109375 Z M8.33203125,11.109375 C8.33203125,10.7210391 8.01724219,10.40625 7.62890625,10.40625 L3.515625,10.40625 C3.12728906,10.40625 2.8125,10.7210391 2.8125,11.109375 C2.8125,11.4977109 3.12728906,11.8125 3.515625,11.8125 L7.62890625,11.8125 C8.01724219,11.8125 8.33203125,11.4977109 8.33203125,11.109375 Z M8.33203125,13.921875 C8.33203125,13.5335391 8.01724219,13.21875 7.62890625,13.21875 L3.515625,13.21875 C3.12728906,13.21875 2.8125,13.5335391 2.8125,13.921875 C2.8125,14.3102109 3.12728906,14.625 3.515625,14.625 L7.62890625,14.625 C8.01724219,14.625 8.33203125,14.3102109 8.33203125,13.921875 Z M13.78125,13.921875 C13.78125,13.5335391 13.4664609,13.21875 13.078125,13.21875 L10.40625,13.21875 C10.0179141,13.21875 9.703125,13.5335391 9.703125,13.921875 C9.703125,14.3102109 10.0179141,14.625 10.40625,14.625 L13.078125,14.625 C13.4664609,14.625 13.78125,14.3102109 13.78125,13.921875 Z" id="Shape"></path>
                        <path d="M14.5195312,9 L6.64453125,9 C6.25619531,9 5.94140625,8.68521094 5.94140625,8.296875 C5.94140625,7.90853906 6.25619531,7.59375 6.64453125,7.59375 L14.5195312,7.59375 C14.9078672,7.59375 15.2226562,7.90853906 15.2226562,8.296875 C15.2226562,8.68521094 14.9078672,9 14.5195312,9 Z M2.8125,8.2265625 C2.8125,8.71196484 3.20600391,9.10546875 3.69140625,9.10546875 C4.17680859,9.10546875 4.5703125,8.71196484 4.5703125,8.2265625 C4.5703125,7.74116016 4.17680859,7.34765625 3.69140625,7.34765625 C3.20600391,7.34765625 2.8125,7.74116016 2.8125,8.2265625 Z" id="Shape"></path>
                    </g>
                </g>
            </g>
        </g>
    </g>
</svg>