<?xml version="1.0" encoding="UTF-8"?>
<svg width="110px" height="100px" viewBox="0 0 110 100" version="1.1" xmlns="http://www.w3.org/2000/svg" xmlns:xlink="http://www.w3.org/1999/xlink">
    <title>avatar</title>
    <g id="Page-1" stroke="none" stroke-width="1" fill="none" fill-rule="evenodd">
        <g id="4" transform="translate(-633.000000, -160.000000)">
            <g id="avatar" transform="translate(633.000000, 160.000000)">
                <path d="M99.5321678,50.1384615 C99.5321678,77.513986 77.3398601,99.7062937 49.9636364,99.7062937 C22.5881119,99.7062937 0.395104895,77.513986 0.395104895,50.1384615 C0.395104895,22.7622378 22.5881119,0.56993007 49.9636364,0.56993007 C77.3398601,0.56993007 99.5321678,22.7622378 99.5321678,50.1384615" id="Fill-2" fill="#E4E4E3"></path>
                <path d="M67.7699301,38.3475524 C67.7699301,50.972028 59.7979021,61.206993 49.9636364,61.206993 C40.1300699,61.206993 32.158042,50.972028 32.158042,38.3475524 C32.158042,25.7230769 40.1300699,15.4881119 49.9636364,15.4881119 C59.7979021,15.4881119 67.7699301,25.7230769 67.7699301,38.3475524" id="Fill-3" fill="#CBCCCB"></path>
                <path d="M49.9636364,99.7062937 C65.1097902,99.7062937 78.6601399,92.9055944 87.7524476,82.2 C80.0797203,73.5951049 66.0307692,67.8293706 49.9636364,67.8293706 C33.8965035,67.8293706 19.8482517,73.5951049 12.1755245,82.2 C21.2678322,92.9055944 34.8181818,99.7062937 49.9636364,99.7062937" id="Fill-4" fill="#D6D6D6"></path>
            </g>
        </g>
    </g>
</svg>