<?xml version="1.0" encoding="UTF-8"?>
<svg width="34px" height="34px" viewBox="0 0 34 34" version="1.1" xmlns="http://www.w3.org/2000/svg" xmlns:xlink="http://www.w3.org/1999/xlink">
    <title>plus-circle</title>
    <defs>
        <linearGradient x1="100%" y1="50%" x2="0%" y2="50%" id="linearGradient-1">
            <stop stop-color="#039BF9" offset="0%"></stop>
            <stop stop-color="#00C8A0" offset="100%"></stop>
        </linearGradient>
    </defs>
    <g id="Page-1" stroke="none" stroke-width="1" fill="none" fill-rule="evenodd">
        <g id="4" transform="translate(-708.000000, -177.000000)">
            <g id="avatar" transform="translate(633.000000, 160.000000)">
                <g id="plus-circle" transform="translate(75.000000, 17.000000)">
                    <circle id="Oval" fill="url(#linearGradient-1)" cx="17" cy="17" r="17"></circle>
                    <path d="M26.1111111,22.4444444 C26.1111111,23.3035541 25.4146652,24 24.5555556,24 L10.5555556,24 C9.69644594,24 9,23.3035541 9,22.4444444 L9,13.8888889 C9,13.0297793 9.69644594,12.3333333 10.5555556,12.3333333 L13.6666667,12.3333333 L15.2222222,10 L19.8888889,10 L21.4444444,12.3333333 L24.5555556,12.3333333 C25.4146652,12.3333333 26.1111111,13.0297793 26.1111111,13.8888889 L26.1111111,22.4444444 Z" id="Path" stroke="#FFFFFF" stroke-width="1.3" stroke-linecap="round" stroke-linejoin="round"></path>
                    <circle id="Oval" stroke="#FFFFFF" stroke-width="1.3" stroke-linecap="round" stroke-linejoin="round" cx="17.5555556" cy="17.7777778" r="3.11111111"></circle>
                </g>
            </g>
        </g>
    </g>
</svg>