<?xml version="1.0" encoding="UTF-8"?>
<svg width="17px" height="20px" viewBox="0 0 17 20" version="1.1" xmlns="http://www.w3.org/2000/svg" xmlns:xlink="http://www.w3.org/1999/xlink">
    <title>paper</title>
    <g id="Page-1" stroke="none" stroke-width="1" fill="none" fill-rule="evenodd">
        <g id="4" transform="translate(-834.000000, -40.000000)" fill="#FFFFFF">
            <g id="Group-7" transform="translate(401.000000, 30.000000)">
                <g transform="translate(421.000000, 0.000000)">
                    <g id="paper" transform="translate(12.000000, 10.000000)">
                        <circle id="Oval" cx="5.5859375" cy="8.203125" r="1"></circle>
                        <path d="M11.8758203,20 L4.68667969,20 C2.10242188,20 0,17.8975781 0,15.3133203 L0,4.68667969 C0,2.10242188 2.10242188,2.84217094e-14 4.68667969,2.84217094e-14 L11.8757812,2.84217094e-14 C14.4600781,2.84217094e-14 16.5625,2.10242188 16.5625,4.68667969 L16.5625,15.3132813 C16.5625,17.8975781 14.4600781,20 11.8758203,20 Z M4.68667969,1.5625 C2.96402344,1.5625 1.5625,2.96402344 1.5625,4.68667969 L1.5625,15.3132813 C1.5625,17.0359766 2.96402344,18.4375 4.68667969,18.4375 L11.8757812,18.4375 C13.5984766,18.4375 15,17.0359766 15,15.3133203 L15,4.68667969 C15,2.96402344 13.5984766,1.5625 11.8758203,1.5625 L4.68667969,1.5625 Z" id="Shape" fill-rule="nonzero"></path>
                        <path d="M12.6171875,7.96875 L11.2890625,7.96875 C9.78132812,7.96875 8.5546875,6.74210938 8.5546875,5.234375 L8.5546875,3.90625 C8.5546875,3.47476563 8.90445312,3.125 9.3359375,3.125 C9.76742188,3.125 10.1171875,3.47476563 10.1171875,3.90625 L10.1171875,5.234375 C10.1171875,5.88054688 10.6428906,6.40625 11.2890625,6.40625 L12.6171875,6.40625 C13.0486719,6.40625 13.3984375,6.75601562 13.3984375,7.1875 C13.3984375,7.61898437 13.0486719,7.96875 12.6171875,7.96875 Z" id="Path"></path>
                        <path d="M10.6640625,15.4296875 L5.2734375,15.4296875 C4.84195312,15.4296875 4.4921875,15.0799219 4.4921875,14.6484375 C4.4921875,14.2169531 4.84195312,13.8671875 5.2734375,13.8671875 L10.6640625,13.8671875 C11.0955469,13.8671875 11.4453125,14.2169531 11.4453125,14.6484375 C11.4453125,15.0799219 11.0955469,15.4296875 10.6640625,15.4296875 Z" id="Path"></path>
                        <path d="M10.6640625,12.421875 L5.2734375,12.421875 C4.84195312,12.421875 4.4921875,12.0721094 4.4921875,11.640625 C4.4921875,11.2091406 4.84195312,10.859375 5.2734375,10.859375 L10.6640625,10.859375 C11.0955469,10.859375 11.4453125,11.2091406 11.4453125,11.640625 C11.4453125,12.0721094 11.0955469,12.421875 10.6640625,12.421875 Z" id="Path"></path>
                    </g>
                </g>
            </g>
        </g>
    </g>
</svg>