<?xml version="1.0" encoding="UTF-8"?>
<svg width="20px" height="20px" viewBox="0 0 20 20" version="1.1" xmlns="http://www.w3.org/2000/svg" xmlns:xlink="http://www.w3.org/1999/xlink">
    <title>crop</title>
    <g id="Page-1" stroke="none" stroke-width="1" fill="none" fill-rule="evenodd">
        <g id="4" transform="translate(-629.000000, -40.000000)" fill="#FFFFFF" fill-rule="nonzero">
            <g id="Group-6" transform="translate(401.000000, 30.000000)">
                <g transform="translate(218.000000, 0.000000)">
                    <g id="crop" transform="translate(10.000000, 10.000000)">
                        <path d="M13.7890625,17.6953125 L6.9921875,17.6953125 C4.4075,17.6953125 2.3046875,15.5925 2.3046875,13.0078125 L2.3046875,6.2109375 C2.3046875,5.77945312 2.65445313,5.4296875 3.0859375,5.4296875 C3.51742187,5.4296875 3.8671875,5.77945312 3.8671875,6.2109375 L3.8671875,13.0078125 C3.8671875,14.7309375 5.2690625,16.1328125 6.9921875,16.1328125 L13.7890625,16.1328125 C14.2205469,16.1328125 14.5703125,16.4825781 14.5703125,16.9140625 C14.5703125,17.3455469 14.2205469,17.6953125 13.7890625,17.6953125 Z M17.6953125,19.21875 L17.6953125,17.6953125 L19.21875,17.6953125 C19.6502344,17.6953125 20,17.3455469 20,16.9140625 C20,16.4825781 19.6502344,16.1328125 19.21875,16.1328125 L16.9140625,16.1328125 C16.4825781,16.1328125 16.1328125,16.4825781 16.1328125,16.9140625 L16.1328125,19.21875 C16.1328125,19.6502344 16.4825781,20 16.9140625,20 C17.3455469,20 17.6953125,19.6502344 17.6953125,19.21875 Z M17.6953125,13.7890625 L17.6953125,6.9921875 C17.6953125,4.4075 15.5925,2.3046875 13.0078125,2.3046875 L6.25,2.3046875 C5.81851562,2.3046875 5.46875,2.65445313 5.46875,3.0859375 C5.46875,3.51742187 5.81851562,3.8671875 6.25,3.8671875 L13.0078125,3.8671875 C14.7309375,3.8671875 16.1328125,5.2690625 16.1328125,6.9921875 L16.1328125,13.7890625 C16.1328125,14.2205469 16.4825781,14.5703125 16.9140625,14.5703125 C17.3455469,14.5703125 17.6953125,14.2205469 17.6953125,13.7890625 Z M3.8671875,3.0859375 L3.8671875,0.78125 C3.8671875,0.349765625 3.51742187,0 3.0859375,0 C2.65445313,0 2.3046875,0.349765625 2.3046875,0.78125 L2.3046875,2.3046875 L0.78125,2.3046875 C0.349765625,2.3046875 0,2.65445313 0,3.0859375 C0,3.51742187 0.349765625,3.8671875 0.78125,3.8671875 L3.0859375,3.8671875 C3.51742187,3.8671875 3.8671875,3.51742187 3.8671875,3.0859375 Z" id="Shape"></path>
                        <path d="M18.7764844,2.60460937 C18.3951172,2.98597656 17.7767969,2.98597656 17.3954297,2.60460937 C17.0140625,2.22324219 17.0140625,1.60492187 17.3954297,1.22355469 C17.7767969,0.8421875 18.3951172,0.8421875 18.7764844,1.22355469 C19.1578516,1.60492187 19.1578516,2.22324219 18.7764844,2.60460937 Z M13.2421875,5.7421875 C12.7028516,5.7421875 12.265625,6.17941406 12.265625,6.71875 C12.265625,7.25808594 12.7028516,7.6953125 13.2421875,7.6953125 C13.7815234,7.6953125 14.21875,7.25808594 14.21875,6.71875 C14.21875,6.17941406 13.7815234,5.7421875 13.2421875,5.7421875 Z M10.1171875,8.8671875 C10.1171875,9.40652344 10.5544141,9.84375 11.09375,9.84375 C11.6330859,9.84375 12.0703125,9.40652344 12.0703125,8.8671875 C12.0703125,8.32785156 11.6330859,7.890625 11.09375,7.890625 C10.5544141,7.890625 10.1171875,8.32785156 10.1171875,8.8671875 Z M8.8671875,10.15625 C8.32785156,10.15625 7.890625,10.5934766 7.890625,11.1328125 C7.890625,11.6721484 8.32785156,12.109375 8.8671875,12.109375 C9.40652344,12.109375 9.84375,11.6721484 9.84375,11.1328125 C9.84375,10.5934766 9.40652344,10.15625 8.8671875,10.15625 Z M5.703125,13.3203125 C5.703125,13.8596484 6.14035156,14.296875 6.6796875,14.296875 C7.21902344,14.296875 7.65625,13.8596484 7.65625,13.3203125 C7.65625,12.7809766 7.21902344,12.34375 6.6796875,12.34375 C6.14035156,12.34375 5.703125,12.7809766 5.703125,13.3203125 Z M2.60460937,17.3953906 C2.22324219,17.0140234 1.60492187,17.0140234 1.22355469,17.3953906 C0.8421875,17.7767578 0.8421875,18.3950781 1.22355469,18.7764453 C1.60492187,19.1578125 2.22324219,19.1578125 2.60460937,18.7764453 C2.98597656,18.3951172 2.98597656,17.7767969 2.60460937,17.3953906 Z" id="Shape"></path>
                    </g>
                </g>
            </g>
        </g>
    </g>
</svg>