<?xml version="1.0" encoding="UTF-8"?>
<svg width="18px" height="16px" viewBox="0 0 18 16" version="1.1" xmlns="http://www.w3.org/2000/svg" xmlns:xlink="http://www.w3.org/1999/xlink">
    <title>google-drive</title>
    <defs>
        <linearGradient x1="100%" y1="50%" x2="0%" y2="50%" id="linearGradient-1">
            <stop stop-color="#039BF9" offset="0%"></stop>
            <stop stop-color="#00C8A0" offset="100%"></stop>
        </linearGradient>
    </defs>
    <g id="Page-1" stroke="none" stroke-width="1" fill="none" fill-rule="evenodd">
        <g id="10" transform="translate(-637.000000, -497.000000)" fill="url(#linearGradient-1)" fill-rule="nonzero">
            <g id="social-media" transform="translate(632.000000, 491.000000)">
                <g id="google-drive" transform="translate(5.400000, 6.480000)">
                    <path d="M13.8656363,13.7634338 L15.8847502,10.0287938 C15.9607094,9.88808248 15.9584368,9.71197543 15.8781193,9.57282067 L10.4736532,0.233574545 C10.3881057,0.0860144568 10.229681,0.000498093126 10.0695129,0.000498093126 L5.87065011,0.000498093126 C5.7064039,0.000498093126 5.55084319,0.088224745 5.46669659,0.233263237 C5.46663432,0.233387761 5.46654093,0.233481153 5.46647867,0.233574545 C5.46641641,0.233667938 5.46622962,0.233979246 5.46616736,0.234072639 C5.4661051,0.234166031 5.46607397,0.234290554 5.46601171,0.234383947 L0.0620125942,9.57282067 C-0.0199237251,9.71480834 -0.0191454545,9.8907286 0.0553817295,10.0287938 L2.07449561,13.7634338 C2.15605836,13.914823 2.31519911,14.0094607 2.48582714,14.0094607 C2.48582714,14.0094607 13.4528416,14.0094607 13.4538689,14.0094607 C13.6229093,14.0094607 13.7823925,13.9175936 13.8656363,13.7634338 Z M3.29463698,13.0754427 L4.91225667,10.2736688 L14.6906653,10.2736688 L13.1759018,13.0754427 L3.29463698,13.0754427 Z M5.87036993,1.40023317 L7.41439636,4.07197357 L2.49921339,12.5852879 L1.00119831,9.81442696 L5.87036993,1.40023317 Z M7.95373783,5.00568027 L10.4567492,9.33974421 L5.45144248,9.33974421 L7.95373783,5.00568027 Z M9.80020018,0.934422705 L14.6642352,9.33974421 L11.5352142,9.33974421 L8.35884319,3.83970652 C8.35884319,3.83967539 8.35881206,3.83964426 8.35881206,3.83964426 L6.67983353,0.934422705 L9.80020018,0.934422705 Z" id="Shape"></path>
                </g>
            </g>
        </g>
    </g>
</svg>