<?xml version="1.0" encoding="UTF-8"?>
<svg width="19px" height="19px" viewBox="0 0 19 19" version="1.1" xmlns="http://www.w3.org/2000/svg" xmlns:xlink="http://www.w3.org/1999/xlink">
    <title>stayhome</title>
    <g id="Page-1" stroke="none" stroke-width="1" fill="none" fill-rule="evenodd">
        <g id="5" transform="translate(-934.000000, -41.000000)" fill="#FFFFFF" fill-rule="nonzero">
            <g id="Group-8" transform="translate(401.000000, 30.000000)">
                <g transform="translate(522.000000, 0.000000)">
                    <g id="stayhome" transform="translate(11.000000, 11.000000)">
                        <path d="M14.546875,18.998627 L4.453125,18.998627 C1.99767187,18.998627 0,17.0009551 0,14.545502 L0,8.30107031 C0,6.92093555 0.655166016,5.59728125 1.75252734,4.7602793 L6.79940234,0.910960938 C8.38950195,-0.301810547 10.610498,-0.301810547 12.2005977,0.910960938 L17.2474727,4.7602793 C18.344834,5.59724414 19,6.92089844 19,8.30107031 L19,14.545502 C19,17.0009551 17.0023281,18.998627 14.546875,18.998627 Z M9.5,1.48482031 C8.86472461,1.48482031 8.22970898,1.68691797 7.69960156,2.0911875 L2.65272656,5.94050586 C1.92115234,6.49851953 1.484375,7.38094336 1.484375,8.30107031 L1.484375,14.545502 C1.484375,16.1824707 2.81615625,17.514252 4.453125,17.514252 L14.546875,17.514252 C16.1838438,17.514252 17.515625,16.1824707 17.515625,14.545502 L17.515625,8.30107031 C17.515625,7.38098047 17.0788477,6.49851953 16.3472734,5.94054297 L11.3003984,2.09122461 C10.7704395,1.6870293 10.135127,1.48482031 9.5,1.48482031 Z" id="Shape"></path>
                        <path d="M9.5,14.6541953 C9.00210352,14.6541953 8.50439258,14.498707 8.08891602,14.1876191 C6.3745,12.9039316 5.45095898,11.3664531 5.41811719,9.74139648 C5.41796875,9.73638672 5.41796875,9.73137695 5.41796875,9.7264043 C5.41796875,8.39354687 6.50004102,7.30921094 7.83007812,7.30921094 C8.4775625,7.30921094 9.06630273,7.56563672 9.5,7.98230078 C9.93373438,7.56563672 10.5224375,7.30921094 11.1699219,7.30921094 C12.499959,7.30921094 13.5820312,8.39354687 13.5820312,9.7264043 C13.5820312,9.73141406 13.5820312,9.73642383 13.5818828,9.74139648 C13.549041,11.3664531 12.6255,12.9039316 10.9110469,14.1876191 C10.4957187,14.4986328 9.99778516,14.6541953 9.5,14.6541953 L9.5,14.6541953 Z M6.90234375,9.71950195 C6.9357793,11.1701074 8.04932031,12.3035762 8.97861328,12.9994141 C9.28561914,13.2293066 9.71445508,13.2293066 10.0213496,12.9994141 C10.9506426,12.3036133 12.0641836,11.1701445 12.0976191,9.71950195 C12.0939082,9.2082832 11.6791738,8.79351172 11.1698848,8.79351172 C10.658332,8.79351172 10.2421504,9.20969336 10.2421504,9.72124609 C10.2421504,10.1311562 9.90987305,10.4634336 9.49996289,10.4634336 C9.09005273,10.4634336 8.75777539,10.1311562 8.75777539,9.72124609 C8.75777539,9.20969336 8.34159375,8.79351172 7.83004102,8.79351172 C7.32078906,8.79351172 6.90605469,9.2082832 6.90234375,9.71950195 Z" id="Shape"></path>
                    </g>
                </g>
            </g>
        </g>
    </g>
</svg>