<svg width="27" height="27" viewBox="0 0 27 27" fill="none" xmlns="http://www.w3.org/2000/svg">
<rect x="1" y="1" width="25" height="25" rx="4" stroke="url(#paint0_linear)"/>
<rect x="8" y="8" width="12" height="12" rx="3" stroke="url(#paint1_linear)" stroke-linecap="round" stroke-linejoin="round"/>
<path fill-rule="evenodd" clip-rule="evenodd" d="M16.3991 13.6218C16.551 14.646 16.0289 15.6521 15.1041 16.1176C14.1792 16.5831 13.0601 16.403 12.328 15.6709C11.5959 14.9388 11.4158 13.8197 11.8813 12.8948C12.3468 11.97 13.3529 11.4479 14.3771 11.5998C15.4229 11.7549 16.244 12.576 16.3991 13.6218Z" stroke="url(#paint2_linear)" stroke-linecap="round" stroke-linejoin="round"/>
<path d="M17.3009 10.6999H17.3069" stroke="url(#paint3_linear)" stroke-linecap="round" stroke-linejoin="round"/>
<defs>
<linearGradient id="paint0_linear" x1="26" y1="1" x2="1" y2="1" gradientUnits="userSpaceOnUse">
<stop stop-color="#039BF9"/>
<stop offset="1" stop-color="#00C8A0"/>
</linearGradient>
<linearGradient id="paint1_linear" x1="20" y1="8" x2="8" y2="8" gradientUnits="userSpaceOnUse">
<stop stop-color="#039BF9"/>
<stop offset="1" stop-color="#00C8A0"/>
</linearGradient>
<linearGradient id="paint2_linear" x1="16.4252" y1="11.5737" x2="11.625" y2="11.5737" gradientUnits="userSpaceOnUse">
<stop stop-color="#039BF9"/>
<stop offset="1" stop-color="#00C8A0"/>
</linearGradient>
<linearGradient id="paint3_linear" x1="17.6039" y1="10.3999" x2="17.0039" y2="10.3999" gradientUnits="userSpaceOnUse">
<stop stop-color="#039BF9"/>
<stop offset="1" stop-color="#00C8A0"/>
</linearGradient>
</defs>
</svg>
