<svg id="intellectual" xmlns="http://www.w3.org/2000/svg" width="44.494" height="52.957" viewBox="0 0 44.494 52.957">
  <path id="Path" d="M7.86,25.151A14.548,14.548,0,0,1,16.163.093,15.075,15.075,0,0,0,13.629.025,14.55,14.55,0,0,0,4.588,25.151,10.7,10.7,0,0,1,7.77,34.384l-.115.9h3.272l.115-.9A10.7,10.7,0,0,0,7.86,25.151Z" transform="translate(1.352 1.353)" fill="#d4e1f4"/>
  <rect id="Rectangle" width="3.272" height="3.49" transform="translate(9.815 37.951)" fill="#d4e1f4"/>
  <path id="Path-2" data-name="Path" d="M3.272,1.54V0H0V1.54A2.383,2.383,0,0,0,2.416,3.926H5.688A2.383,2.383,0,0,1,3.272,1.54Z" transform="translate(9.815 42.749)" fill="#d4e1f4"/>
  <path id="Path-3" data-name="Path" d="M8.417,25.652A9.892,9.892,0,0,1,5.28,21.686a9.2,9.2,0,0,1-.918-3.743V6.089L14.61,1.07,12.432,0,0,6.089V17.943a9.2,9.2,0,0,0,.918,3.743,9.893,9.893,0,0,0,3.136,3.966l8.364,5.7L14.6,29.865Z" transform="translate(18.321 20.159)" fill="#d4e1f4"/>
  <path id="Path-4" data-name="Path" d="M5,27.4a9.371,9.371,0,0,1,2.784,8.1l-.164,1.25a.945.945,0,0,0,.845,1.112v6.384a3.693,3.693,0,0,0,3.725,3.7h7.327a3.716,3.716,0,0,0,2.86-1.306l-1-.856a2.421,2.421,0,0,1-1.86.853H12.189a2.383,2.383,0,0,1-2.416-2.386v-1.54h8.833V41.4H9.773v-3.49h7.852V36.6H8.964l.115-.9A10.7,10.7,0,0,0,5.9,26.461a14.542,14.542,0,1,1,24.093-7.192l1.272.306A15.852,15.852,0,1,0,5,27.4Z" fill="#2f55d4"/>
  <path id="Shape" d="M13.73,34.18a.643.643,0,0,1-.367-.114l-8.73-5.95a11.244,11.244,0,0,1-3.593-4.5A10.366,10.366,0,0,1,0,19.326V7.063a.646.646,0,0,1,.354-.587L13.44.067a.654.654,0,0,1,.576,0l13.1,6.428a.649.649,0,0,1,.365.587V19.326a11.734,11.734,0,0,1-4.652,8.79L14.1,34.066A.646.646,0,0,1,13.73,34.18Zm.011-32.8L1.309,7.472V19.326a9.2,9.2,0,0,0,.918,3.743,9.908,9.908,0,0,0,3.136,3.965l8.365,5.7,8.364-5.7a10.448,10.448,0,0,0,4.081-7.708V7.49L13.741,1.382h0Z" transform="translate(17.012 18.777)" fill="#2eca8b"/>
  <path id="Path-5" data-name="Path" d="M1.114,3.282A.654.654,0,1,0,.2,4.219L4.157,8.078a.654.654,0,0,0,.914,0L12.2,1.125a.654.654,0,1,0-.914-.937L4.614,6.7Z" transform="translate(24.54 31.733)" fill="#2eca8b"/>
</svg>
