<?xml version="1.0" encoding="UTF-8"?>
<svg width="82px" height="80px" viewBox="0 0 82 80" version="1.1" xmlns="http://www.w3.org/2000/svg" xmlns:xlink="http://www.w3.org/1999/xlink">
    <title>logo</title>
    <g id="Page-1" stroke="none" stroke-width="1" fill="none" fill-rule="evenodd">
        <g id="2" transform="translate(-1071.000000, -194.000000)">
            <g id="Group-2" transform="translate(739.000000, 194.000000)">
                <g id="logo" transform="translate(332.000000, 0.000000)">
                    <path d="M57.7037288,29.2698305 C57.8989831,29.3511864 57.800678,29.5640678 57.7945763,29.7172881 C57.6867797,32.3416949 57.5728814,34.9654237 57.460339,37.5891525 C57.3430508,40.3240678 57.2237288,43.0583051 57.1111864,45.7932203 C57.100339,46.059661 57.0691525,46.2786441 56.8413559,46.4772881 C55.059661,48.0298305 53.2135593,49.48 51.1288136,50.6244068 C48.1132203,52.280678 44.9186441,53.419661 41.5342373,53.9762712 C38.2155932,54.5227119 34.8833898,54.5661017 31.5430508,54.04 C27.4352542,53.3932203 23.5837288,52.040678 19.9294915,50.0772881 C19.1972881,49.6840678 18.7450847,49.1518644 18.5077966,48.3471186 C17.5010169,44.9355932 16.4644068,41.5328814 15.4210169,38.1322034 C14.8847458,36.3823729 14.3172881,34.6427119 13.8494915,32.8732203 C13.859661,32.700339 13.7633898,32.5172881 13.9023729,32.3572881 C14.7383051,32.8671186 15.5749153,33.3749153 16.4094915,33.8867797 C16.7105085,34.0711864 16.859661,34.3566102 16.9505085,34.6922034 C18.0874576,38.8847458 19.3572881,43.039322 20.5701695,47.2101695 C20.7864407,47.9538983 21.2115254,48.4040678 21.9233898,48.6874576 C24.3484746,49.6515254 26.7938983,50.5694915 29.3450847,51.1227119 C34.3172881,52.200678 39.2827119,52.2623729 44.2210169,50.8454237 C47.9030508,49.7891525 51.2555932,48.060339 54.4508475,45.9857627 C54.959322,45.6555932 55.1450847,45.2583051 55.1410169,44.6555932 C55.1145763,40.5681356 55.1349153,36.48 55.0989831,32.3918644 C55.0922034,31.6515254 55.3030508,31.1322034 55.9091525,30.7044068 C56.420339,30.3444068 56.8630508,29.8861017 57.339661,29.4766102 C57.4474576,29.3837288 57.5566102,29.2088136 57.7037288,29.2698305 Z M80.1261017,9.20271186 C79.0705085,9.88135593 78.1986441,10.7844068 77.2040678,11.5410169 C75.3952542,12.9179661 73.6115254,14.3294915 71.8162712,15.7240678 C70.0277966,17.1132203 68.2366102,18.4969492 66.4494915,19.8867797 C65.4081356,20.6969492 64.3932203,21.5416949 63.3294915,22.3213559 C62.2901695,23.0833898 61.2542373,23.8474576 60.2508475,24.6583051 C58.8332203,25.8054237 57.399322,26.9322034 55.9559322,28.0467797 C53.9742373,29.5776271 51.9389831,31.0413559 49.9952542,32.6183051 C46.8169492,35.1959322 43.5572881,37.6684746 40.3457627,40.2027119 C38.9091525,41.3362712 37.4555932,42.4488136 36.0223729,43.5864407 C35.7484746,43.8040678 35.559322,43.7552542 35.2888136,43.5850847 C32.9091525,42.0854237 30.5152542,40.6067797 28.1328814,39.1111864 C24.1030508,36.5837288 20.0772881,34.0501695 16.0535593,31.5132203 C15.5111864,31.1715254 15.5308475,31.1762712 16.0677966,30.8759322 C17.179661,30.2535593 18.2854237,29.6176271 19.3816949,28.9674576 C19.6949153,28.7816949 19.9674576,28.7457627 20.3179661,28.8766102 C25.0467797,30.6379661 29.7918644,32.3552542 34.5016949,34.1640678 C35.4094915,34.5125424 36.0576271,34.4210169 36.8650847,33.9416949 C39.7566102,32.2230508 42.6976271,30.5871186 45.6176271,28.9166102 C50.0881356,26.359322 54.5566102,23.7986441 59.0264407,21.240678 C63.8040678,18.5071186 68.5823729,15.7762712 73.359322,13.0413559 C75.1335593,12.0257627 76.8928814,10.9816949 78.6861017,9.9979661 C79.1661017,9.73423729 79.599322,9.39525424 80.1261017,9.20271186 Z M0.961355932,21.6779661 C5.45423729,23.3376271 9.93898305,25.0189831 14.4244068,26.6976271 C14.6122034,26.7674576 14.9057627,26.7884746 14.9328814,26.9816949 C14.9701695,27.2535593 14.6366102,27.1769492 14.4779661,27.2738983 C13.7532203,27.7152542 12.9905085,28.1023729 12.3037288,28.5959322 C11.8705085,28.9077966 11.5552542,28.8467797 11.160678,28.5952542 C8.9959322,27.2176271 6.82372881,25.8515254 4.65559322,24.4786441 C3.1159322,23.5044068 1.57898305,22.5261017 0.00949152542,21.5294915 C0.38440678,21.359322 0.685423729,21.5762712 0.961355932,21.6779661 Z M36.1708475,0.0820338983 C41.2420339,1.09966102 46.3138983,2.11389831 51.3850847,3.13559322 C52.580339,3.37627119 53.7579661,3.69355932 54.9681356,3.87389831 C55.8115254,3.99932203 56.6372881,4.2440678 57.4711864,4.43525424 C57.4616949,4.48949153 57.4522034,4.54372881 57.4433898,4.59864407 C56.7050847,4.48067797 55.9559322,4.44745763 55.2216949,4.35932203 C53.899661,4.20135593 52.5722034,4.15254237 51.2494915,4.03932203 C46.9037288,3.66915254 42.5545763,3.33627119 38.2074576,2.98644068 C37.6189831,2.93898305 37.0305085,2.88338983 36.4427119,2.82305085 C35.9145763,2.76881356 35.4250847,2.87661017 34.9328814,3.07661017 C30.3654237,4.93152542 25.7918644,6.77220339 21.2237288,8.62576271 C21.0820339,8.68338983 20.9694915,8.75389831 20.7871186,8.64745763 C22.1328814,7.85966102 23.4555932,7.07932203 24.7844068,6.30983051 C27.2467797,4.8840678 29.7145763,3.46711864 32.1776271,2.04271186 C33.1762712,1.46508475 34.1701695,0.877966102 35.1654237,0.293559322 C35.4772881,0.110508475 35.8040678,0.00813559322 36.1708475,0.0820338983 Z" id="Combined-Shape" fill="#FFFFFF"></path>
                    <path d="M13.8494915,32.8732203 C13.7274576,33.2881356 13.7552542,33.7172881 13.7566102,34.1383051 C13.7654237,36.6162712 13.7986441,39.0942373 13.8033898,41.5722034 C13.8040678,42.0352542 13.9816949,42.2922034 14.3755932,42.5410169 C15.8894915,43.4989831 16.2332203,45.2881356 15.3633898,46.7322034 C14.9464407,47.4237288 14.8074576,48.0711864 14.8467797,48.8671186 C14.9857627,51.6976271 15.3823729,54.4976271 15.8061017,57.2908475 C16.1830508,59.7735593 16.7138983,62.2325424 17.4013559,64.6522034 C17.5430508,65.1505085 17.5552542,65.6630508 17.6413559,66.1654237 C17.7905085,67.0291525 18.0054237,67.8813559 18.1430508,68.7464407 C18.5498305,71.3111864 18.7769492,73.8867797 18.339661,76.4698305 C18.1376271,77.6630508 17.6657627,78.7511864 16.6515254,79.4888136 C15.9430508,80.0047458 15.0915254,80.0461017 14.259661,79.9349153 C12.4054237,79.6867797 11.7979661,78.2494915 11.4298305,76.720678 C10.7538983,73.9111864 10.9613559,71.0555932 11.2616949,68.2257627 C11.6433898,64.6257627 12.2155932,61.04 12.2338983,57.4135593 C12.2481356,54.5511864 12.1172881,51.6867797 11.8467797,48.8325424 C11.8040678,48.3776271 11.6366102,47.9918644 11.2,47.8094915 C9.5959322,47.1389831 8.98915254,44.0983051 10.999322,42.7308475 C11.5715254,42.3416949 11.7410169,41.8935593 11.7477966,41.2535593 C11.7830508,37.9810169 11.8562712,34.7084746 11.8888136,31.4359322 C11.8983051,30.4766102 12.1776271,29.779661 13.080678,29.2691525 C15.8305085,27.7138983 18.5328814,26.0738983 21.2610169,24.480678 C24.9322034,22.3369492 28.6149153,20.2135593 32.2820339,18.0637288 C32.980339,17.6549153 33.6820339,17.2284746 34.1877966,16.5627119 C34.2644068,16.4616949 34.3654237,16.3722034 34.4705085,16.2989831 C34.9525424,15.9633898 35.4135593,15.5294915 36.0698305,15.9179661 C36.7186441,16.3023729 37.2576271,16.7694915 37.2108475,17.6088136 C37.1708475,18.3349153 36.6928814,19.0115254 35.9437288,19.1037288 C34.44,19.2888136 33.28,20.1661017 32.0359322,20.8671186 C27.1898305,23.5986441 22.4,26.4284746 17.5315254,29.1220339 C16.3871186,29.7552542 15.2359322,30.3905085 14.1783051,31.1762712 C13.6101695,31.5979661 13.5586441,31.7138983 13.9023729,32.3572881 C13.7633898,32.5172881 13.859661,32.700339 13.8494915,32.8732203" id="Fill-6" fill="#FDAF19"></path>
                </g>
            </g>
        </g>
    </g>
</svg>