<svg xmlns="http://www.w3.org/2000/svg" width="60.088" height="59.946" viewBox="0 0 60.088 59.946">
  <g id="logo" transform="translate(-0.007 -0.043)">
    <path id="Combined_Shape" data-name="Combined Shape" d="M23.65,40.486a27.232,27.232,0,0,1-8.71-2.972,2.04,2.04,0,0,1-1.067-1.3c-.755-2.559-1.533-5.11-2.315-7.661-.4-1.313-.828-2.617-1.179-3.945.008-.13-.064-.266.04-.387.627.382,1.255.763,1.881,1.147a.944.944,0,0,1,.406.6c.852,3.145,1.8,6.26,2.714,9.389a1.578,1.578,0,0,0,1.015,1.108A35.556,35.556,0,0,0,22,38.3a22.533,22.533,0,0,0,11.157-.208,28.568,28.568,0,0,0,7.673-3.645,1.048,1.048,0,0,0,.518-1c-.02-3.065,0-6.132-.032-9.2a1.369,1.369,0,0,1,.608-1.265c.383-.27.715-.614,1.073-.921.081-.07.163-.2.274-.156.146.061.072.221.067.336q-.121,2.952-.25,5.9-.132,3.077-.262,6.153a.628.628,0,0,1-.2.513,24.573,24.573,0,0,1-4.285,3.11,22.436,22.436,0,0,1-7.2,2.514,24.177,24.177,0,0,1-3.929.326A22.843,22.843,0,0,1,23.65,40.486Zm2.809-7.841c-1.785-1.125-3.58-2.234-5.367-3.356q-4.533-2.843-9.059-5.7c-.407-.257-.392-.253.011-.478q1.25-.7,2.486-1.432a.74.74,0,0,1,.7-.067c3.546,1.32,7.106,2.609,10.638,3.965a1.808,1.808,0,0,0,1.772-.167c2.169-1.29,4.374-2.516,6.565-3.769q5.029-2.877,10.057-5.757,5.374-3.075,10.75-6.149c1.33-.762,2.65-1.545,4-2.283a8,8,0,0,1,1.08-.6c-.792.509-1.445,1.186-2.191,1.753C56.539,9.645,55.2,10.7,53.855,11.75s-2.685,2.08-4.025,3.122c-.781.608-1.543,1.241-2.34,1.826-.779.572-1.557,1.145-2.309,1.752q-1.594,1.291-3.221,2.542c-1.486,1.148-3.012,2.246-4.47,3.429-2.384,1.933-4.829,3.787-7.237,5.688-1.078.851-2.168,1.685-3.243,2.538a.418.418,0,0,1-.26.109A.563.563,0,0,1,26.459,32.646ZM8.364,21.4C6.74,20.37,5.111,19.346,3.485,18.316,2.33,17.585,1.177,16.852,0,16.1c.281-.128.507.035.714.112q5.054,1.867,10.1,3.765c.141.052.362.068.382.213.028.2-.222.146-.341.219-.544.331-1.115.621-1.631.992a.71.71,0,0,1-.417.159A.824.824,0,0,1,8.364,21.4Zm7.22-14.961c1.009-.59,2-1.176,3-1.753q2.77-1.6,5.545-3.2c.749-.433,1.494-.874,2.241-1.312a1.044,1.044,0,0,1,.753-.158q5.705,1.145,11.411,2.291c.9.18,1.779.418,2.687.553.633.095,1.252.278,1.877.421-.007.041-.014.081-.021.122-.554-.088-1.116-.113-1.667-.179-.992-.119-1.987-.156-2.979-.24-3.259-.278-6.521-.527-9.781-.789q-.663-.054-1.324-.123a2.317,2.317,0,0,0-1.132.191Q21.055,4.35,15.911,6.426a.52.52,0,0,1-.191.058A.265.265,0,0,1,15.583,6.442Z" transform="translate(0.007 0.043)" fill="#fff"/>
    <path id="Fill_6" data-name="Fill 6" d="M3.091,12.831a3.274,3.274,0,0,0-.07.949c.007,1.858.032,3.717.035,5.575a.77.77,0,0,0,.429.727,2.248,2.248,0,0,1,.741,3.143,2.643,2.643,0,0,0-.387,1.6,62.623,62.623,0,0,0,.719,6.318,44.813,44.813,0,0,0,1.2,5.521,10.574,10.574,0,0,1,.18,1.135c.112.648.273,1.287.376,1.936a17.794,17.794,0,0,1,.147,5.793,3.343,3.343,0,0,1-1.266,2.264,2.406,2.406,0,0,1-1.794.335c-1.391-.186-1.846-1.264-2.122-2.411a18.62,18.62,0,0,1-.126-6.371,80.925,80.925,0,0,0,.729-8.109q.016-3.22-.29-6.436a.832.832,0,0,0-.485-.767,2.28,2.28,0,0,1-.151-3.809,1.2,1.2,0,0,0,.561-1.108c.026-2.454.081-4.909.106-7.363a1.67,1.67,0,0,1,.894-1.625C4.577,8.962,6.6,7.732,8.65,6.537c2.753-1.608,5.515-3.2,8.266-4.813A4.629,4.629,0,0,0,18.345.6a.946.946,0,0,1,.212-.2c.362-.252.707-.577,1.2-.286a1.369,1.369,0,0,1,.856,1.268,1.143,1.143,0,0,1-.95,1.121,8.044,8.044,0,0,0-2.931,1.323C13.1,5.875,9.5,8,5.853,10.018a22.065,22.065,0,0,0-2.515,1.541c-.426.316-.465.4-.207.886-.1.12-.032.257-.04.387" transform="translate(7.296 11.824)" fill="#fff"/>
  </g>
</svg>
