<?xml version="1.0" encoding="UTF-8"?>
<svg width="23px" height="23px" viewBox="0 0 23 23" version="1.1" xmlns="http://www.w3.org/2000/svg" xmlns:xlink="http://www.w3.org/1999/xlink">
    <title>correct</title>
    <g id="Page-1" stroke="none" stroke-width="1" fill="none" fill-rule="evenodd">
        <g id="4" transform="translate(-795.000000, -293.000000)">
            <g id="Group-Copy-12" transform="translate(533.000000, 285.000000)">
                <g id="correct" transform="translate(262.000000, 8.000000)">
                    <polygon id="Path" fill="#00C2AB" points="21.1293783 14.0798259 21.4589925 17.25 18.5456217 18.5495524 17.25 21.4589925 14.0798259 21.1293783 11.5 23 8.92017414 21.1293783 5.75 21.4589925 4.45044758 18.5456217 1.54100748 17.25 1.87062172 14.0798259 0 11.5 1.87062172 8.92017414 1.54100748 5.75 4.45437828 4.45044758 5.75 1.54100748 8.92017414 1.87062172 11.5 0 14.0798259 1.87062172 17.25 1.54100748 18.5495524 4.45437828 21.4589925 5.75 21.1293783 8.92017414 23 11.5"></polygon>
                    <polyline id="Path" stroke="#FFFFFF" stroke-width="1.5" stroke-linecap="round" stroke-linejoin="round" points="16.842823 8.05 9.21650718 15.6763158 5.75 12.2098086"></polyline>
                </g>
            </g>
        </g>
    </g>
</svg>