<?xml version="1.0" encoding="UTF-8"?>
<svg width="20px" height="20px" viewBox="0 0 20 20" version="1.1" xmlns="http://www.w3.org/2000/svg" xmlns:xlink="http://www.w3.org/1999/xlink">
    <title>sale</title>
    <g id="Page-1" stroke="none" stroke-width="1" fill="none" fill-rule="evenodd">
        <g id="11" transform="translate(-526.000000, -40.000000)">
            <g id="Group-5" transform="translate(401.000000, 30.000000)">
                <g transform="translate(115.000000, 0.000000)">
                    <g id="sale" transform="translate(10.000000, 10.000000)">
                        <path d="M3.125,3.90625 L3.125,3.125 C3.125,1.83058594 4.17433594,0.78125 5.46875,0.78125 L3.125,0.78125 C1.83058594,0.78125 0.78125,1.83058594 0.78125,3.125 L0.78125,3.90625 C0.78125,5.20066406 1.83058594,6.25 3.125,6.25 L5.46875,6.25 C4.17433594,6.25 3.125,5.20066406 3.125,3.90625 Z" id="Path" fill="#D4E1F4"></path>
                        <path d="M16.875,7.03125 L3.125,7.03125 C1.401875,7.03125 0,5.629375 0,3.90625 L0,3.125 C0,1.401875 1.401875,0 3.125,0 L16.875,0 C18.598125,0 20,1.401875 20,3.125 L20,3.90625 C20,5.629375 18.598125,7.03125 16.875,7.03125 Z M3.125,1.5625 C2.2634375,1.5625 1.5625,2.2634375 1.5625,3.125 L1.5625,3.90625 C1.5625,4.7678125 2.2634375,5.46875 3.125,5.46875 L16.875,5.46875 C17.7365625,5.46875 18.4375,4.7678125 18.4375,3.90625 L18.4375,3.125 C18.4375,2.2634375 17.7365625,1.5625 16.875,1.5625 L3.125,1.5625 Z M18.828125,15.3125 L18.828125,9.375 C18.828125,8.94351562 18.4783594,8.59375 18.046875,8.59375 C17.6153906,8.59375 17.265625,8.94351562 17.265625,9.375 L17.265625,15.3125 C17.265625,17.035625 15.86375,18.4375 14.140625,18.4375 L5.859375,18.4375 C4.13625,18.4375 2.734375,17.035625 2.734375,15.3125 L2.734375,9.375 C2.734375,8.94351562 2.38460938,8.59375 1.953125,8.59375 C1.52164063,8.59375 1.171875,8.94351562 1.171875,9.375 L1.171875,15.3125 C1.171875,17.8971875 3.2746875,20 5.859375,20 L14.140625,20 C16.7253125,20 18.828125,17.8971875 18.828125,15.3125 Z" id="Shape" fill="#2F55D4" fill-rule="nonzero"></path>
                        <path d="M7.890625,9.375 C8.42996094,9.375 8.8671875,9.81222656 8.8671875,10.3515625 C8.8671875,10.8908984 8.42996094,11.328125 7.890625,11.328125 C7.35128906,11.328125 6.9140625,10.8908984 6.9140625,10.3515625 C6.9140625,9.81222656 7.35128906,9.375 7.890625,9.375 Z M11.171875,14.765625 C11.171875,15.3049609 11.6091016,15.7421875 12.1484375,15.7421875 C12.6877734,15.7421875 13.125,15.3049609 13.125,14.765625 C13.125,14.2262891 12.6877734,13.7890625 12.1484375,13.7890625 C11.6091016,13.7890625 11.171875,14.2262891 11.171875,14.765625 Z M8.29816406,15.5017969 L12.9075391,10.6971094 C13.2062109,10.3857422 13.1959766,9.89117188 12.8846094,9.5925 C12.5732422,9.29378906 12.0787109,9.30398438 11.78,9.61542969 L7.170625,14.4201172 C6.87195313,14.7314844 6.8821875,15.2260547 7.19355469,15.5247266 C7.345,15.6700391 7.53976562,15.7421875 7.73429687,15.7421875 C7.93964844,15.7421875 8.14472656,15.6616797 8.29816406,15.5017969 Z" id="Shape" fill="#2ECA8B" fill-rule="nonzero"></path>
                    </g>
                </g>
            </g>
        </g>
    </g>
</svg>