<svg xmlns="http://www.w3.org/2000/svg" width="54.148" height="53.912" viewBox="0 0 54.148 53.912">
  <g id="paint" transform="translate(-0.052 -0.057)">
    <path id="Path" d="M0,0,15.65,15.65,14.1,17.205l1.344,1.344,1.555-1.555Z" transform="translate(28.22 11.249)" fill="#d4e1f4"/>
    <path id="Path-2" data-name="Path" d="M10.528,0,23.587,13.059,2.419,34.226a1.71,1.71,0,0,1-2.419,0L1.344,35.57a1.71,1.71,0,0,0,2.419,0L24.93,14.4Z" transform="translate(17.692 16.432)" fill="#d4e1f4"/>
    <path id="Shape" d="M20.2,53.911a3.156,3.156,0,0,1-2.246-.931L.929,35.96a3.186,3.186,0,0,1,0-4.493L15.717,16.679V6.2a6.227,6.227,0,0,1,12.454,0V9.117l18.548,18.55a.732.732,0,0,1,0,1.037L44.128,31.3,22.443,52.98A3.156,3.156,0,0,1,20.2,53.911Zm2.938-42.575L1.966,32.5a1.716,1.716,0,0,0,0,2.419L18.987,51.944a1.7,1.7,0,0,0,1.21.5,1.72,1.72,0,0,0,1.21-.5L42.574,30.777l-14.4-14.4v5.609a4.725,4.725,0,0,1-.942,9.355c-.074,0-.147,0-.217-.005a4.725,4.725,0,0,1-.307-9.417V14.908l-3.571-3.571Zm4.09,12.016a3.262,3.262,0,1,0,3.262,3.262A3.273,3.273,0,0,0,27.224,23.353Zm.947-12.162h0V14.3L43.61,29.74l1.555-1.554L28.17,11.191ZM21.944,1.463A4.772,4.772,0,0,0,17.183,6.2v9.014l5.432-5.432,2.591-2.591a.735.735,0,0,1,1.037,0l.462.462V6.2A4.772,4.772,0,0,0,21.944,1.463Zm3.781,7.283L24.17,10.3,26.7,12.835V9.725l-.979-.979Z" transform="translate(0.049 0.058)" fill="#2f55d4"/>
    <path id="Shape-2" data-name="Shape" d="M6.872,16.234H6.865A6.966,6.966,0,0,1,2,14.265l-.008-.008a6.917,6.917,0,0,1,0-9.706L6.324.215a.733.733,0,0,1,1.037,0L11.7,4.55A6.856,6.856,0,0,1,6.872,16.234ZM6.842,1.77,3.025,5.586a5.474,5.474,0,0,0,0,7.63,5.52,5.52,0,0,0,3.851,1.554,5.312,5.312,0,0,0,3.787-1.551,5.472,5.472,0,0,0,0-7.634L6.842,1.77Z" transform="translate(40.513 34.646)" fill="#2eca8b"/>
  </g>
</svg>
