<svg xmlns="http://www.w3.org/2000/svg" xmlns:xlink="http://www.w3.org/1999/xlink" width="65.523" height="78.631" viewBox="0 0 65.523 78.631">
  <defs>
    <filter id="Rectangle" x="0" y="0" width="65.523" height="78.631" filterUnits="userSpaceOnUse">
      <feOffset dy="2" input="SourceAlpha"/>
      <feGaussianBlur stdDeviation="2" result="blur"/>
      <feFlood flood-opacity="0.141"/>
      <feComposite operator="in" in2="blur"/>
      <feComposite in="SourceGraphic"/>
    </filter>
  </defs>
  <g id="Group_8" data-name="Group 8" transform="translate(6 4)">
    <rect id="Rectangle_Copy_2" data-name="Rectangle Copy 2" width="44.749" height="55.708" rx="6" transform="translate(4.369 15.292)" fill="#fff"/>
    <g transform="matrix(1, 0, 0, 1, -6, -4)" filter="url(#Rectangle)">
      <rect id="Rectangle-2" data-name="Rectangle" width="53.523" height="66.631" rx="6" transform="translate(6 4)" fill="#fff"/>
    </g>
    <g id="goal" transform="translate(9.831 13.108)">
      <path id="Path" d="M1.872,6.9,1.816,0,0,.015.071,8.731,9.15,8.657,9.135,6.841,1.872,6.9Z" transform="translate(14.673 1.112)" fill="#d4e1f4"/>
      <path id="Path-2" data-name="Path" d="M2.327,7.627a1.258,1.258,0,0,1-.511-.1l1.574-2.3h0a.532.532,0,0,0,.052-.094l.007-.019c0-.01.008-.02.011-.031s.006-.023.009-.035.017-.011.018-.016a.577.577,0,0,0,.025-.108V0H1.7V6.738a.577.577,0,0,1-.025.108c0,.005-.017.011-.018.016s-.005.024-.009.035-.007.02-.011.031l-.007.019a.532.532,0,0,1-.052.094h0L0,9.343a1.258,1.258,0,0,0,.511.1H8.231L7.255,7.627Z" transform="translate(23.181 3.632)" fill="#d4e1f4"/>
      <path id="Shape" d="M14.164,11.985a27.357,27.357,0,0,1-9.833-1.634C1.539,9.233,0,7.685,0,5.993S1.539,2.752,4.332,1.634A27.357,27.357,0,0,1,14.164,0,27.364,27.364,0,0,1,24,1.634C26.79,2.752,28.328,4.3,28.328,5.993S26.79,9.233,24,10.351A27.364,27.364,0,0,1,14.164,11.985Zm0-10.9A26.244,26.244,0,0,0,4.736,2.647c-2.318.927-3.647,2.147-3.647,3.346S2.418,8.412,4.736,9.339A26.265,26.265,0,0,0,14.164,10.9a26.268,26.268,0,0,0,9.428-1.556c2.318-.927,3.647-2.147,3.647-3.346S25.91,3.574,23.592,2.647A26.246,26.246,0,0,0,14.164,1.09Z" transform="translate(0 29.1)" fill="#2eca8b"/>
      <path id="Shape-2" data-name="Shape" d="M0,35V.5A.506.506,0,0,1,.545,0H8.87a2.356,2.356,0,0,1,2.389,2.315v.227H18.7a.549.549,0,0,1,.481.806L16.493,8.362l2.692,5.011a.535.535,0,0,1-.471.791H10.058a2.329,2.329,0,0,1-1.6-.633.279.279,0,0,1-.047-.039,2.364,2.364,0,0,1-.695-1.673V10.9H1.09V35A.545.545,0,0,1,0,35ZM9.562,12.974a1.244,1.244,0,0,0,.492.1h7.739l-2.4-4.462a.528.528,0,0,1,0-.509l2.4-4.471H11.258V10.37a.558.558,0,0,1-.025.108s-.005.006-.009.009a.028.028,0,0,0-.009.007l0,.005a.24.24,0,0,1-.007.03.121.121,0,0,1-.007.022l0,.009a.044.044,0,0,0,0,.01l0,.009a.557.557,0,0,1-.052.095h0ZM1.09,9.806h9.079V2.315a1.266,1.266,0,0,0-1.3-1.226H1.09Z" transform="translate(13.619)" fill="#2f55d4"/>
    </g>
  </g>
</svg>
