<svg id="Pay_Pal_" data-name="Pay Pal " xmlns="http://www.w3.org/2000/svg" width="63.13" height="44" viewBox="0 0 63.13 44">
  <g id="Rectangle_Copy_4" data-name="Rectangle Copy 4" fill="#fff" stroke="#e6e7e8" stroke-miterlimit="10" stroke-width="1">
    <rect width="63.13" height="44" rx="10" stroke="none"/>
    <rect x="0.5" y="0.5" width="62.13" height="43" rx="9.5" fill="none"/>
  </g>
  <path id="Fill_1" data-name="Fill 1" d="M4.249,0h6.527c1.838,0,4.019.06,5.477,1.346a4.418,4.418,0,0,1,1.367,3.7c-.4,4.984-3.382,7.776-7.38,7.776H7.022c-.548,0-.911.363-1.066,1.346l-.9,5.715c-.058.371-.219.589-.512.616H.525c-.446,0-.6-.341-.488-1.081l2.9-18.332A1.156,1.156,0,0,1,4.249,0" transform="translate(22.957 11.478)" fill="#1b3d92"/>
  <path id="Fill_1-2" data-name="Fill 1" d="M3.664,0h6.521C13.686,0,15,1.772,14.8,4.38c-.336,4.3-2.935,6.676-6.382,6.676H6.677c-.472,0-.79.312-.919,1.161l-.747,4.928c-.048.32-.217.508-.47.531H.453c-.385,0-.522-.294-.421-.932L2.529.935A1,1,0,0,1,3.664,0" transform="translate(27.739 17.217)" fill="#00a2d3"/>
  <path id="Page_1" data-name="Page 1" d="M0,8.15,1.14.935A1,1,0,0,1,2.275,0H8.8a6.372,6.372,0,0,1,2.635.479c-.655,4.436-3.524,6.9-7.281,6.9H.93c-.424,0-.74.217-.93.77" transform="translate(28.696 17.217)" fill="#1b2e7f"/>
</svg>
