<?xml version="1.0" encoding="UTF-8"?>
<svg width="19px" height="22px" viewBox="0 0 19 22" version="1.1" xmlns="http://www.w3.org/2000/svg" xmlns:xlink="http://www.w3.org/1999/xlink">
    <title>Pay Pal </title>
    <g id="Page-1" stroke="none" stroke-width="1" fill="none" fill-rule="evenodd">
        <g id="14" transform="translate(-847.000000, -393.000000)">
            <g id="Group-4" transform="translate(312.000000, 207.000000)">
                <g id="Group-Copy-8" transform="translate(188.000000, 186.000000)">
                    <g id="Pay-Pal-" transform="translate(347.000000, 0.000000)">
                        <path d="M4.77154643,0.438405797 L10.7549849,0.438405797 C12.4401846,0.438405797 14.438881,0.493175172 15.7760252,1.67233667 C16.6691517,2.46008998 17.1378541,3.7151572 17.0295496,5.06248382 C16.6626719,9.63132962 13.9297573,12.1903708 10.2649918,12.1903708 L7.31392537,12.1903708 C6.8117442,12.1903708 6.47880812,12.5231526 6.33717914,13.4246102 L5.51363289,18.6630309 C5.46025203,19.0029096 5.3129147,19.203165 5.04400478,19.2273869 L1.35810301,19.2273869 C0.949106918,19.2273869 0.803775225,18.9145072 0.910691216,18.2369098 L3.56492311,1.43243138 C3.67122198,0.758999489 4.03964245,0.438405797 4.77154643,0.438405797" id="Fill-1" fill="#1B3D92"></path>
                        <path d="M8.61961986,5.69927536 L14.5970414,5.69927536 C17.8060639,5.69927536 19.0143843,7.32368873 18.8278599,9.71425622 C18.5202257,13.6550284 16.1375265,15.8340782 12.9772564,15.8340782 L11.3815391,15.8340782 C10.9484754,15.8340782 10.6570406,16.1204217 10.5390164,16.8986097 L9.85463069,21.4162345 C9.81019807,21.709675 9.65591814,21.8820056 9.4240354,21.9029877 L5.67595882,21.9029877 C5.3232749,21.9029877 5.19784532,21.6331521 5.29010472,21.0487397 L7.57900174,6.55660893 C7.67064402,5.97574499 7.98830639,5.69927536 8.61961986,5.69927536" id="Fill-1" fill="#00A2D3"></path>
                        <path d="M6.13768116,13.1700186 L7.18246484,6.55650093 C7.27426139,5.97579128 7.59207805,5.69932165 8.22339151,5.69932165 L14.2008131,5.69932165 C15.1903645,5.69932165 15.9896888,5.85375585 16.6162196,6.13824804 C16.0156079,10.2046041 13.3855979,12.4638794 9.94176136,12.4638794 L6.9905406,12.4638794 C6.60221802,12.4638794 6.31201748,12.6624377 6.13768116,13.1700186" id="Page-1" fill="#1B2E7F"></path>
                    </g>
                </g>
            </g>
        </g>
    </g>
</svg>