<svg xmlns="http://www.w3.org/2000/svg" width="46.967" height="46.967" viewBox="0 0 46.967 46.967">
  <g id="pen" transform="translate(-0.014 -0.019)">
    <path id="Path" d="M8.146,8.207,24.376,2.227l6.99,6.99L22.148,0,5.919,5.979,0,30.42l3.651-3.651Z" transform="translate(2.119 13.516)" fill="#d4e1f4"/>
    <path id="Path-2" data-name="Path" d="M0,0H9.4V3.15H0Z" transform="translate(20.914 8.278) rotate(-45)" fill="#d4e1f4"/>
    <path id="Shape" d="M.668,34.915A.668.668,0,0,1,.2,33.77l.091-.091L6.809,6.763a.665.665,0,0,1,.418-.47L24.192.043A.668.668,0,1,1,24.654,1.3L8.024,7.424,2.1,31.865,14.179,19.791a5.091,5.091,0,1,1,4.04,2,5.044,5.044,0,0,1-3.1-1.051L3.05,32.81l24.441-5.919,6.127-16.63a.668.668,0,1,1,1.254.462l-6.25,16.965a.667.667,0,0,1-.47.418L1.235,34.624l-.091.091A.672.672,0,0,1,.668,34.915Zm17.55-21.969a3.751,3.751,0,1,0,2.653,1.1A3.727,3.727,0,0,0,18.218,12.946Z" transform="translate(0.015 12.071)" fill="#2f55d4"/>
    <path id="Shape-2" data-name="Shape" d="M19.419,27.677a.662.662,0,0,1-.472-.2L.2,8.731A.676.676,0,0,1,0,8.258a.668.668,0,0,1,.2-.473L7.785.2A.67.67,0,0,1,8.73.2L27.481,18.947a.668.668,0,0,1,0,.945l-7.589,7.59A.664.664,0,0,1,19.419,27.677ZM8.258,1.614,1.613,8.258l17.806,17.8,6.645-6.644L8.258,1.614Z" transform="translate(19.305 0.018)" fill="#2eca8b"/>
  </g>
</svg>
