<svg width="38" height="38" viewBox="0 0 38 38" fill="none" xmlns="http://www.w3.org/2000/svg">
<circle cx="19" cy="19" r="19" fill="url(#paint0_linear)"/>
<path d="M19.5001 18.4999H18.8501C18.8501 18.8589 19.1411 19.1499 19.5001 19.1499V18.4999ZM18.5001 18.4999V19.1499C18.8591 19.1499 19.1501 18.8589 19.1501 18.4999H18.5001ZM18.5001 19.4999H19.1501C19.1501 19.1409 18.8591 18.8499 18.5001 18.8499V19.4999ZM19.5001 19.4999V18.8499C19.1411 18.8499 18.8501 19.1409 18.8501 19.4999H19.5001ZM26.4501 18.9999C26.4501 18.9171 26.5173 18.8499 26.6001 18.8499V20.1499C27.2352 20.1499 27.7501 19.635 27.7501 18.9999H26.4501ZM26.6001 19.1499C26.5173 19.1499 26.4501 19.0827 26.4501 18.9999H27.7501C27.7501 18.3648 27.2352 17.8499 26.6001 17.8499V19.1499ZM19.5001 19.1499H26.6001V17.8499H19.5001V19.1499ZM18.8501 11.3999V18.4999H20.1501V11.3999H18.8501ZM19.0001 11.5499C18.9173 11.5499 18.8501 11.4827 18.8501 11.3999H20.1501C20.1501 10.7648 19.6352 10.2499 19.0001 10.2499V11.5499ZM19.1501 11.3999C19.1501 11.4827 19.0829 11.5499 19.0001 11.5499V10.2499C18.365 10.2499 17.8501 10.7648 17.8501 11.3999H19.1501ZM19.1501 18.4999V11.3999H17.8501V18.4999H19.1501ZM11.4001 19.1499L18.5001 19.1499V17.8499L11.4001 17.8499V19.1499ZM11.5501 18.9999C11.5501 19.0827 11.4829 19.1499 11.4001 19.1499V17.8499C10.765 17.8499 10.2501 18.3648 10.2501 18.9999H11.5501ZM11.4001 18.8499C11.4829 18.8499 11.5501 18.9171 11.5501 18.9999H10.2501C10.2501 19.635 10.765 20.1499 11.4001 20.1499V18.8499ZM18.5001 18.8499L11.4001 18.8499V20.1499L18.5001 20.1499V18.8499ZM19.1501 26.5999L19.1501 19.4999H17.8501L17.8501 26.5999H19.1501ZM19.0001 26.4499C19.0829 26.4499 19.1501 26.5171 19.1501 26.5999H17.8501C17.8501 27.235 18.365 27.7499 19.0001 27.7499V26.4499ZM18.8501 26.5999C18.8501 26.5171 18.9173 26.4499 19.0001 26.4499V27.7499C19.6352 27.7499 20.1501 27.235 20.1501 26.5999H18.8501ZM18.8501 19.4999L18.8501 26.5999H20.1501L20.1501 19.4999H18.8501ZM26.6001 18.8499H19.5001V20.1499H26.6001V18.8499Z" fill="white"/>
<defs>
<linearGradient id="paint0_linear" x1="38" y1="0" x2="0" y2="0" gradientUnits="userSpaceOnUse">
<stop stop-color="#039BF9"/>
<stop offset="1" stop-color="#00C8A0"/>
</linearGradient>
</defs>
</svg>
