<svg xmlns="http://www.w3.org/2000/svg" width="40.678" height="30.001" viewBox="0 0 40.678 30.001">
  <g id="contact" transform="translate(0 0)">
    <path id="Path" d="M4.237,27.458V5.932a3.389,3.389,0,0,1,3.39-3.39H38.873A3.383,3.383,0,0,0,35.593,0H3.39A3.389,3.389,0,0,0,0,3.39V24.915a3.389,3.389,0,0,0,3.39,3.39h.958A3.092,3.092,0,0,1,4.237,27.458Z" transform="translate(0.847 0.847)" fill="#d4e1f4"/>
    <g id="Group">
      <path id="Shape" d="M36.441,30H4.237A4.244,4.244,0,0,1,0,25.763V4.238A4.246,4.246,0,0,1,4.237,0h32.2a4.246,4.246,0,0,1,4.237,4.238V25.763A4.244,4.244,0,0,1,36.441,30ZM4.237,1.7A2.555,2.555,0,0,0,1.695,4.237V25.763A2.555,2.555,0,0,0,4.237,28.3h32.2a2.555,2.555,0,0,0,2.542-2.542V4.237A2.555,2.555,0,0,0,36.441,1.7Z" fill="#2f55d4"/>
      <path id="Path-2" data-name="Path" d="M10.72,0H.847a.847.847,0,0,0,0,1.695H10.72A.847.847,0,1,0,10.72,0Z" transform="translate(23.635 14.153)" fill="#2f55d4"/>
      <path id="Path-3" data-name="Path" d="M10.72,0H.847a.847.847,0,0,0,0,1.695H10.72A.847.847,0,1,0,10.72,0Z" transform="translate(23.635 19.576)" fill="#2f55d4"/>
      <path id="Path-4" data-name="Path" d="M10.72,0H.847a.847.847,0,0,0,0,1.695H10.72A.847.847,0,1,0,10.72,0Z" transform="translate(23.635 8.729)" fill="#2f55d4"/>
    </g>
    <path id="Shape-2" data-name="Shape" d="M4.381,8.754A4.377,4.377,0,1,1,8.754,4.376,4.4,4.4,0,0,1,4.381,8.754Zm0-7.06A2.682,2.682,0,1,0,7.06,4.381,2.691,2.691,0,0,0,4.381,1.695Z" transform="translate(7.771 5.907)" fill="#2eca8b"/>
    <path id="Shape-3" data-name="Shape" d="M12.61,7.814H.847A.851.851,0,0,1,0,6.966,7.037,7.037,0,0,1,1.966,1.992,6.626,6.626,0,0,1,6.686,0h.09a6.613,6.613,0,0,1,4.716,1.992,7.034,7.034,0,0,1,1.966,4.974A.852.852,0,0,1,12.61,7.814ZM6.729,1.695A5.025,5.025,0,0,0,3.178,3.178,5.215,5.215,0,0,0,1.754,6.119H11.7A5.183,5.183,0,0,0,10.28,3.178,5.026,5.026,0,0,0,6.729,1.695Z" transform="translate(5.424 16.28)" fill="#2eca8b"/>
  </g>
</svg>
