<svg xmlns="http://www.w3.org/2000/svg" width="30.879" height="41" viewBox="0 0 30.879 41">
  <g id="name" transform="translate(0 0.001)">
    <path id="Path" d="M7.72,3.431H29.163A3.43,3.43,0,0,0,25.732,0H17.155V2.23H12.008V0H3.431A3.43,3.43,0,0,0,0,3.431V32.937a3.43,3.43,0,0,0,3.431,3.431h.858V6.862A3.43,3.43,0,0,1,7.72,3.431Z" transform="translate(0.858 3.774)" fill="#d4e1f4"/>
    <g id="Group">
      <path id="Shape" d="M26.59,41H4.288A4.3,4.3,0,0,1,0,36.711V7.2A4.3,4.3,0,0,1,4.288,2.916h7.72V.857A.862.862,0,0,1,12.866,0h5.146a.862.862,0,0,1,.858.858V2.916H26.59A4.3,4.3,0,0,1,30.879,7.2V36.711A4.3,4.3,0,0,1,26.59,41ZM4.288,4.632A2.587,2.587,0,0,0,1.715,7.2V36.711a2.588,2.588,0,0,0,2.573,2.573h22.3a2.588,2.588,0,0,0,2.574-2.573V7.2A2.587,2.587,0,0,0,26.59,4.632H18.87V6a.863.863,0,0,1-.858.858H12.866A.862.862,0,0,1,12.009,6V4.632Zm9.436-2.916V5.146h3.431V1.716Z" fill="#2f55d4"/>
      <path id="Path-2" data-name="Path" d="M19.419,0H.858a.858.858,0,1,0,0,1.715h18.57A.858.858,0,1,0,19.419,0Z" transform="translate(5.301 34.653)" fill="#2f55d4"/>
      <path id="Path-3" data-name="Path" d="M.858,1.715H10.85A.858.858,0,1,0,10.85,0H.858a.858.858,0,0,0,0,1.715Z" transform="translate(9.59 30.879)" fill="#2f55d4"/>
    </g>
    <path id="Shape-2" data-name="Shape" d="M4.431,8.86H4.426a4.432,4.432,0,1,1,.005,0ZM4.426,1.715A2.716,2.716,0,1,0,6.937,3.389,2.714,2.714,0,0,0,4.426,1.715Z" transform="translate(11.013 10.121)" fill="#2eca8b"/>
    <path id="Shape-3" data-name="Shape" d="M12.763,7.909H.858A.863.863,0,0,1,0,7.051,7.126,7.126,0,0,1,1.99,2.016,6.708,6.708,0,0,1,6.767,0h.086a6.7,6.7,0,0,1,4.777,2.015,7.123,7.123,0,0,1,1.99,5.036A.862.862,0,0,1,12.763,7.909ZM6.81,1.716a5.086,5.086,0,0,0-3.594,1.5A5.28,5.28,0,0,0,1.776,6.193h10.07A5.244,5.244,0,0,0,10.4,3.216,5.083,5.083,0,0,0,6.81,1.716Z" transform="translate(8.629 20.62)" fill="#2eca8b"/>
  </g>
</svg>
