<svg xmlns="http://www.w3.org/2000/svg" width="34.897" height="38.231" viewBox="0 0 34.897 38.231">
  <g id="logout" transform="translate(34.912 0) rotate(90)">
    <path id="Path" d="M27.979,7.8H3.314L8.612,1.7A1.033,1.033,0,0,0,7.053.342L.376,8.034a1.031,1.031,0,0,0,.048,1.63L7.1,16.341a1.031,1.031,0,1,0,1.46-1.457L3.544,9.869H27.979a1.032,1.032,0,0,0,0-2.065Z" transform="translate(0 8.627)" fill="#2eca8b"/>
    <path id="Path-2" data-name="Path" d="M17.994,0H4.139A4.11,4.11,0,0,0,0,4.083v3.69a1.032,1.032,0,1,0,2.065,0V4.093a2.044,2.044,0,0,1,2.06-2.028h13.87a2.011,2.011,0,0,1,2.035,1.986v26.74a2.022,2.022,0,0,1-2,2.041H4.139A2.055,2.055,0,0,1,2.065,30.8v-3.61a1.032,1.032,0,0,0-2.065,0v3.6A4.122,4.122,0,0,0,4.137,34.9H17.994a4.089,4.089,0,0,0,4.1-4.077V4.093A4.078,4.078,0,0,0,18.032,0Z" transform="translate(16.136 0.015)" fill="#2f55d4"/>
  </g>
</svg>
