<svg xmlns="http://www.w3.org/2000/svg" width="41.803" height="39.974" viewBox="0 0 41.803 39.974">
  <g id="avatar" transform="translate(0 -0.019)">
    <g id="Group" transform="translate(0.883 0.883)">
      <path id="Path" d="M4.416,10.217a8.45,8.45,0,0,1,8.45-8.451c.274,0,.539.018.8.036A8.452,8.452,0,1,0,7.647,16.866,8.453,8.453,0,0,1,4.416,10.217Z" transform="translate(5.677 0.018)" fill="#d4e1f4"/>
      <path id="Path-2" data-name="Path" d="M18.472,1.766a14.247,14.247,0,0,1,2.967.309A13.931,13.931,0,0,0,14.057,0C6.278.018-.018,6.225,0,14.676l4.5-.009a14.053,14.053,0,0,1,13.969-12.9Z" transform="translate(0.062 20.787)" fill="#d4e1f4"/>
      <path id="Path-3" data-name="Path" d="M3.859,12.609,15.143,1.325,13.819,0,2.093,11.726,0,18l2.313-.768Z" transform="translate(22.031 20.231)" fill="#d4e1f4"/>
    </g>
    <path id="Shape" d="M9.333,18.667a9.333,9.333,0,1,1,9.333-9.334A9.283,9.283,0,0,1,9.333,18.667Zm0-16.9A7.568,7.568,0,1,0,16.9,9.333,7.587,7.587,0,0,0,9.333,1.766Z" transform="translate(5.678 0.019)" fill="#2f55d4"/>
    <path id="Shape-2" data-name="Shape" d="M22.9,19.215h0a.885.885,0,0,1-.626-.256.874.874,0,0,1-.212-.9l.724-2.163H.883A.889.889,0,0,1,0,15.011,15.013,15.013,0,0,1,28.653,8.741a.885.885,0,1,1-1.607.742A13.251,13.251,0,0,0,1.793,14.137H23.382l.786-2.358a.883.883,0,0,1,1.466-.344l4.177,4.177a.883.883,0,0,1-.345,1.465L23.188,19.17A1.075,1.075,0,0,1,22.9,19.215ZM25.4,13.7h0l-1.086,3.249,3.25-1.086L25.4,13.7Z" transform="translate(0 20.778)" fill="#2f55d4"/>
    <path id="Path-4" data-name="Path" d="M1.5.258A.88.88,0,0,0,.258,1.5L4.443,5.688a.868.868,0,0,0,.627.256A.905.905,0,0,0,5.7,5.688a.879.879,0,0,0,0-1.245Z" transform="translate(33.552 22.534)" fill="#2f55d4"/>
    <path id="Shape-3" data-name="Shape" d="M5.058,17.662h0a.86.86,0,0,1-.614-.256L.259,13.221a.877.877,0,0,1,0-1.245L11.984.258a.88.88,0,0,1,1.246,0l4.194,4.177a.872.872,0,0,1,.258.623.883.883,0,0,1-.258.622L5.7,17.407a.9.9,0,0,1-.626.256ZM12.6,2.13h0L2.13,12.6l2.941,2.939L15.543,5.071,12.6,2.13Z" transform="translate(24.121 20.237)" fill="#2eca8b"/>
  </g>
</svg>
