<?xml version="1.0" encoding="UTF-8"?>
<svg width="26px" height="25px" viewBox="0 0 26 25" version="1.1" xmlns="http://www.w3.org/2000/svg" xmlns:xlink="http://www.w3.org/1999/xlink">
    <title>Rectangle</title>
    <g id="Page-1" stroke="none" stroke-width="1" fill="none" fill-rule="evenodd">
        <g id="Shhada" transform="translate(-1381.000000, -114.000000)" stroke="#CD99FF">
            <path d="M1401.80197,118.000952 C1402.02012,118.004947 1402.12016,118.022636 1402.21709,118.074473 C1402.45047,118.360459 1402.46447,118.477782 1402.46447,118.781943 L1402.46447,118.781943 L1402.46447,134.218057 C1402.46447,134.522218 1402.45047,134.639541 1402.38999,134.752623 C1402.10401,134.986004 1401.98668,135 1401.68252,135 L1401.68252,135 L1386.24641,135 C1385.94225,135 1385.82492,134.986004 1385.71184,134.925527 C1385.47846,134.639541 1385.46447,134.522218 1385.46447,134.218057 L1385.46447,134.218057 L1385.46447,118.781943 C1385.46447,118.477782 1385.47846,118.360459 1385.53894,118.247377 C1385.82492,118.013996 1385.94225,118 1386.24641,118 L1386.24641,118 Z" id="Rectangle" transform="translate(1393.964466, 126.500000) rotate(45.000000) translate(-1393.964466, -126.500000) "></path>
        </g>
    </g>
</svg>