<svg width="25" height="25" viewBox="0 0 25 25" fill="none" xmlns="http://www.w3.org/2000/svg">
<path d="M11.4004 13.0501C11.8783 13.689 12.6102 14.0889 13.406 14.1459C14.2019 14.2029 14.9833 13.9114 15.5474 13.3471L17.1974 11.6971C18.2396 10.618 18.2247 8.90285 17.1639 7.84208C16.1031 6.78131 14.3879 6.76641 13.3089 7.80858L12.3629 8.74908" stroke="url(#paint0_linear)" stroke-width="1.3" stroke-linecap="round" stroke-linejoin="round"/>
<path d="M13.6002 11.95C13.1223 11.3111 12.3904 10.9112 11.5946 10.8542C10.7987 10.7972 10.0173 11.0887 9.45321 11.653L7.80321 13.303C6.76103 14.382 6.77594 16.0972 7.83671 17.158C8.89747 18.2188 10.6127 18.2337 11.6917 17.1915L12.6322 16.251" stroke="url(#paint1_linear)" stroke-width="1.3" stroke-linecap="round" stroke-linejoin="round"/>
<rect x="0.5" y="0.5" width="24" height="24" rx="3.5" stroke="url(#paint2_linear)"/>
<defs>
<linearGradient id="paint0_linear" x1="17.9693" y1="7.03662" x2="11.4004" y2="7.03662" gradientUnits="userSpaceOnUse">
<stop stop-color="#039BF9"/>
<stop offset="1" stop-color="#00C8A0"/>
</linearGradient>
<linearGradient id="paint1_linear" x1="13.6002" y1="10.8472" x2="7.03125" y2="10.8472" gradientUnits="userSpaceOnUse">
<stop stop-color="#039BF9"/>
<stop offset="1" stop-color="#00C8A0"/>
</linearGradient>
<linearGradient id="paint2_linear" x1="25" y1="0" x2="0" y2="0" gradientUnits="userSpaceOnUse">
<stop stop-color="#039BF9"/>
<stop offset="1" stop-color="#00C8A0"/>
</linearGradient>
</defs>
</svg>
