<?xml version="1.0" encoding="UTF-8"?>
<svg width="475px" height="391px" viewBox="0 0 475 391" version="1.1" xmlns="http://www.w3.org/2000/svg" xmlns:xlink="http://www.w3.org/1999/xlink">
    <title>working_with_computer</title>
    <defs>
        <linearGradient x1="0%" y1="50%" x2="100%" y2="50%" id="linearGradient-1">
            <stop stop-color="#183866" offset="0%"></stop>
            <stop stop-color="#1A7FC1" offset="100%"></stop>
        </linearGradient>
        <linearGradient x1="-0.130208333%" y1="50.0571918%" x2="100%" y2="50.0571918%" id="linearGradient-2">
            <stop stop-color="#000000" offset="0%"></stop>
            <stop stop-color="#000000" stop-opacity="0" offset="99%"></stop>
        </linearGradient>
        <linearGradient x1="176.071638%" y1="-511.697437%" x2="310.393423%" y2="-483.059516%" id="linearGradient-3">
            <stop stop-color="#000000" offset="0%"></stop>
            <stop stop-color="#000000" stop-opacity="0" offset="99%"></stop>
        </linearGradient>
        <linearGradient x1="55.8890865%" y1="-257.997925%" x2="51.4967569%" y2="-277.344398%" id="linearGradient-4">
            <stop stop-color="#000000" offset="0%"></stop>
            <stop stop-color="#000000" stop-opacity="0" offset="99%"></stop>
        </linearGradient>
        <linearGradient x1="156.099434%" y1="-69.4440465%" x2="8.10919636%" y2="-82.9845022%" id="linearGradient-5">
            <stop stop-color="#000000" offset="0%"></stop>
            <stop stop-color="#000000" stop-opacity="0" offset="99%"></stop>
        </linearGradient>
        <linearGradient x1="2090.39943%" y1="-16584.9057%" x2="1915.23959%" y2="-16647.5472%" id="linearGradient-6">
            <stop stop-color="#000000" offset="0%"></stop>
            <stop stop-color="#000000" stop-opacity="0" offset="99%"></stop>
        </linearGradient>
        <linearGradient x1="241.391042%" y1="-447.345838%" x2="133.14204%" y2="-432.868337%" id="linearGradient-7">
            <stop stop-color="#000000" offset="0%"></stop>
            <stop stop-color="#000000" stop-opacity="0" offset="99%"></stop>
        </linearGradient>
        <linearGradient x1="106.849874%" y1="22.5454536%" x2="-37.2622568%" y2="19.2859682%" id="linearGradient-8">
            <stop stop-color="#000000" offset="0%"></stop>
            <stop stop-color="#000000" stop-opacity="0" offset="99%"></stop>
        </linearGradient>
        <linearGradient x1="14.1689055%" y1="-41.3352765%" x2="114.167711%" y2="-41.3352765%" id="linearGradient-9">
            <stop stop-color="#183866" offset="0%"></stop>
            <stop stop-color="#1A7FC1" offset="100%"></stop>
        </linearGradient>
        <linearGradient x1="40.3859048%" y1="38.8391369%" x2="71.4296357%" y2="69.1358631%" id="linearGradient-10">
            <stop stop-color="#000000" offset="0%"></stop>
            <stop stop-color="#000000" stop-opacity="0" offset="99%"></stop>
        </linearGradient>
        <linearGradient x1="-12.5312903%" y1="44.4304476%" x2="93.6888417%" y2="53.7520986%" id="linearGradient-11">
            <stop stop-color="#000000" offset="0%"></stop>
            <stop stop-color="#000000" stop-opacity="0" offset="99%"></stop>
        </linearGradient>
        <linearGradient x1="53.7018062%" y1="43.072392%" x2="43.7210153%" y2="77.4226266%" id="linearGradient-12">
            <stop stop-color="#000000" offset="0%"></stop>
            <stop stop-color="#000000" stop-opacity="0" offset="99%"></stop>
        </linearGradient>
        <linearGradient x1="190.925804%" y1="-324.62343%" x2="102.153644%" y2="-326.365284%" id="linearGradient-13">
            <stop stop-color="#000000" offset="0%"></stop>
            <stop stop-color="#000000" stop-opacity="0" offset="99%"></stop>
        </linearGradient>
        <linearGradient x1="168.578122%" y1="-129.128124%" x2="111.529843%" y2="-129.82936%" id="linearGradient-14">
            <stop stop-color="#000000" offset="0%"></stop>
            <stop stop-color="#000000" stop-opacity="0" offset="99%"></stop>
        </linearGradient>
        <linearGradient x1="56.9885901%" y1="43.9388394%" x2="28.1275469%" y2="68.9532695%" id="linearGradient-15">
            <stop stop-color="#000000" offset="0%"></stop>
            <stop stop-color="#000000" stop-opacity="0" offset="99%"></stop>
        </linearGradient>
        <linearGradient x1="52.1468867%" y1="100%" x2="46.5479868%" y2="-13.8625455%" id="linearGradient-16">
            <stop stop-color="#000000" offset="0%"></stop>
            <stop stop-color="#000000" stop-opacity="0" offset="100%"></stop>
        </linearGradient>
        <linearGradient x1="64.7485117%" y1="-1473.57143%" x2="63.1392221%" y2="-1370.20408%" id="linearGradient-17">
            <stop stop-color="#000000" offset="0%"></stop>
            <stop stop-color="#000000" stop-opacity="0" offset="99%"></stop>
        </linearGradient>
        <linearGradient x1="50%" y1="100%" x2="52.859579%" y2="-32.2076258%" id="linearGradient-18">
            <stop stop-color="#000000" offset="0%"></stop>
            <stop stop-color="#000000" stop-opacity="0" offset="100%"></stop>
        </linearGradient>
        <linearGradient x1="-0.0398606622%" y1="49.9931927%" x2="99.9956739%" y2="49.9931927%" id="linearGradient-19">
            <stop stop-color="#ECC4D7" offset="0%"></stop>
            <stop stop-color="#EFD4D1" offset="42%"></stop>
            <stop stop-color="#F2EAC9" offset="100%"></stop>
        </linearGradient>
        <linearGradient x1="99.0319802%" y1="-163.287332%" x2="199.030233%" y2="-163.287332%" id="linearGradient-20">
            <stop stop-color="#ECC4D7" offset="0%"></stop>
            <stop stop-color="#EFD4D1" offset="42%"></stop>
            <stop stop-color="#F2EAC9" offset="100%"></stop>
        </linearGradient>
        <linearGradient x1="124.30571%" y1="-84.5640257%" x2="224.30571%" y2="-84.5640257%" id="linearGradient-21">
            <stop stop-color="#ECC4D7" offset="0%"></stop>
            <stop stop-color="#EFD4D1" offset="42%"></stop>
            <stop stop-color="#F2EAC9" offset="100%"></stop>
        </linearGradient>
        <linearGradient x1="128.890019%" y1="99.9022667%" x2="23.000935%" y2="152.68582%" id="linearGradient-22">
            <stop stop-color="#000000" offset="0%"></stop>
            <stop stop-color="#000000" stop-opacity="0" offset="99%"></stop>
        </linearGradient>
        <linearGradient x1="77.2360651%" y1="39.8033593%" x2="46.9744732%" y2="172.445719%" id="linearGradient-23">
            <stop stop-color="#000000" offset="0%"></stop>
            <stop stop-color="#000000" stop-opacity="0" offset="99%"></stop>
        </linearGradient>
        <linearGradient x1="3990.94215%" y1="-27775.6693%" x2="3874.35961%" y2="-27810.6835%" id="linearGradient-24">
            <stop stop-color="#000000" offset="0%"></stop>
            <stop stop-color="#000000" stop-opacity="0" offset="99%"></stop>
        </linearGradient>
    </defs>
    <g id="Page-1" stroke="none" stroke-width="1" fill="none" fill-rule="evenodd">
        <g id="Shhada" transform="translate(-185.000000, -161.000000)">
            <g id="working_with_computer" transform="translate(186.000000, 162.000000)">
                <path d="M349.859716,67.5002671 C335.455676,51.1155092 324.305209,31.5551085 307.089199,18.1836394 C280.047529,-2.86392321 241.128047,-4.91607679 209.507997,8.30602671 C177.887947,21.5281302 153.255609,48.1801503 137.020217,78.3584975 C128.480401,94.2367112 121.771937,111.556628 109.257696,124.531953 C98.6787145,135.49409 84.7747245,142.488297 71.591586,150.105943 C50.3362104,162.353923 29.8666277,177.154107 16.1120033,197.461336 C2.35737896,217.768564 -3.79258765,244.440067 5.00050083,267.325476 C10.9296661,282.768581 22.8724207,295.055526 35.1074124,306.180017 C49.5049583,319.259249 64.9805342,331.507229 82.8394658,339.300217 C105.198848,348.995993 130.019516,351.080618 154.359616,352.06773 C197.510157,353.809858 240.729834,352.507799 283.697245,348.171235 C318.882588,344.625426 355.132972,338.572871 384.570985,318.98 C425.808881,291.542187 447.070751,241.270918 451.856945,191.973773 C453.805192,172.257513 453.311636,151.768447 445.700484,133.474407 C427.497362,89.716778 378.382053,99.9515693 349.859716,67.5002671 Z" id="Path" fill="#00C3AA" opacity="0.18"></path>
                <path d="M175.244825,155.353222 C175.244825,155.353222 158.925008,152.482805 154.353122,163.795626 C149.781235,175.108447 154.353122,214.177295 154.353122,214.177295 L215.242337,257.285509 L175.244825,155.353222 Z" id="Path" fill="#3F3D56"></path>
                <path d="M251.966795,329.351169 L228.347546,336.345376 C224.915976,337.35257 221.315917,335.395764 220.294791,331.968314 L220.294791,331.968314 C219.287597,328.536744 221.244403,324.936685 224.671853,323.915559 L248.258631,316.914858 C251.688275,315.907163 255.287461,317.860592 256.311386,321.285426 L256.311386,321.285426 C257.32945,324.711472 255.387773,328.316201 251.966795,329.351169 L251.966795,329.351169 Z" id="Path" fill="#00C2AB"></path>
                <circle id="Oval" fill="#25233A" cx="250.635492" cy="344.307212" r="10.884207"></circle>
                <circle id="Oval" fill="#3F3D56" cx="248.674257" cy="345.300818" r="5.44210351"></circle>
                <circle id="Oval" fill="#25233A" cx="207.001252" cy="333.552888" r="10.884207"></circle>
                <path d="M210.488614,334.533506 C210.488614,337.539097 208.052102,339.975609 205.046511,339.975609 C202.04092,339.975609 199.604407,337.539097 199.604407,334.533506 C199.604407,331.527915 202.04092,329.091402 205.046511,329.091402 C208.052102,329.091402 210.488614,331.527915 210.488614,334.533506 Z" id="Path" fill="url(#linearGradient-1)"></path>
                <circle id="Oval" fill="#25233A" cx="203.851586" cy="348.437496" r="10.884207"></circle>
                <path d="M212.44985,348.801169 C212.44985,351.806759 210.013337,354.243272 207.007746,354.243272 C204.002155,354.243272 201.565643,351.806759 201.565643,348.801169 C201.565643,345.795578 204.002155,343.359065 207.007746,343.359065 C210.013337,343.359065 212.44985,345.795578 212.44985,348.801169 L212.44985,348.801169 Z" id="Path" fill="#3F3D56"></path>
                <path d="M252.824023,340.027563 L203.046311,329.981102 C199.543257,329.264029 197.278907,325.850087 197.980868,322.343973 L197.980868,322.343973 C198.698029,318.843978 202.107624,316.580587 205.611503,317.278531 L255.389215,327.305509 C258.892269,328.022582 261.156619,331.436524 260.454658,334.942638 L260.454658,334.942638 C259.746623,338.450552 256.334145,340.724569 252.824023,340.027563 L252.824023,340.027563 Z" id="Path" fill="#00C2AB"></path>
                <path d="M222.139132,261.824925 L235.731402,261.824925 L235.731402,319.070918 C235.731402,322.822527 232.690123,325.863806 228.938514,325.863806 L228.938514,325.863806 C225.186906,325.863806 222.145626,322.822527 222.145626,319.070918 L222.145626,261.824925 L222.139132,261.824925 Z" id="Path" fill="#00C2AB"></path>
                <path d="M227.016244,336.267446 L203.403489,343.274641 C199.969871,344.286013 196.365296,342.32833 195.34424,338.897579 L195.34424,338.897579 C194.337046,335.46601 196.293852,331.86595 199.721302,330.844825 L223.334057,323.857112 C226.763701,322.849417 230.362887,324.802846 231.386811,328.227679 L231.386811,328.227679 C232.386175,331.653222 230.434489,335.243398 227.016244,336.267446 Z" id="Path" fill="#00C2AB"></path>
                <path d="M230.925726,335.572571 L228.328063,336.345376 C227.553494,336.574276 226.742847,336.655781 225.938214,336.585659 L227.022738,336.267446 C227.777353,336.047199 228.484302,335.688219 229.107362,335.208898 L230.925726,335.572571 Z" id="Path" fill="url(#linearGradient-2)"></path>
                <path d="M256.58414,323.142755 C256.583114,324.635279 256.064406,326.081237 255.116461,327.234073 L234.465042,323.058331 C234.984781,322.350561 235.359931,321.547297 235.569048,320.694457 L248.291102,316.927846 C249.946291,316.450528 251.72331,316.650394 253.231117,317.483464 C254.738923,318.316533 255.853964,319.714541 256.330868,321.36985 C256.495794,321.946493 256.581009,322.542998 256.58414,323.142755 L256.58414,323.142755 Z" id="Path" fill="url(#linearGradient-3)"></path>
                <path d="M222.314474,320.616528 C222.197762,320.109613 222.138939,319.591095 222.139131,319.070918 L222.139131,261.824925 L226.860384,261.824925 L226.860384,323.519416 C226.813712,323.822423 226.829178,324.131758 226.905843,324.428598 C226.19096,324.120377 225.424058,323.950689 224.645876,323.928548 C224.096728,323.889575 223.545509,323.889575 222.996361,323.928548 L223.334057,323.831135 C223.54187,323.79217 222.587229,321.785476 222.314474,320.616528 Z" id="Path" fill="url(#linearGradient-4)" opacity="0.31"></path>
                <path d="M257.194591,339.326194 C256.246658,339.851322 255.180545,340.126231 254.096878,340.124975 C253.660748,340.123881 253.225757,340.080382 252.798047,339.995092 L230.89975,335.572571 L229.074891,335.208898 C228.451831,335.688219 227.744882,336.047199 226.990267,336.267446 L225.905743,336.585659 L203.403489,343.274641 C199.969871,344.286013 196.365296,342.32833 195.34424,338.897579 C197.295619,340.708788 200.258722,340.877796 202.403389,339.300217 C205.150417,337.397429 216.086578,334.54 222.282003,333.020367 C225.20986,332.320422 227.450066,329.960568 227.996861,327.000284 C228.012334,326.825693 228.038359,326.652198 228.074791,326.480751 C229.107362,327.597746 231.003656,328.851119 234.432571,329.91616 C242.874975,332.513823 256.58414,334.234775 256.58414,334.234775 C256.58414,334.234775 259.058414,336.663589 257.194591,339.326194 Z" id="Path" fill="url(#linearGradient-5)" opacity="0.31"></path>
                <path d="M259.545476,337.144157 C259.118297,337.813473 258.569881,338.397128 257.928431,338.865109 C258.363539,338.417012 258.922037,337.819549 259.545476,337.144157 Z" id="Path" fill="url(#linearGradient-6)"></path>
                <path d="M222.314474,320.616528 C222.581202,321.768139 223.145511,322.829577 223.951002,323.694758 C223.749683,323.733723 223.54187,323.785676 223.334057,323.844124 L202.864474,329.903172 C199.716461,329.10386 197.64303,326.101775 198.010155,322.874686 C198.377279,319.647596 201.072054,317.187958 204.319165,317.116177 C204.755295,317.117271 205.190286,317.16077 205.617997,317.24606 L222.314474,320.616528 Z" id="Path" fill="url(#linearGradient-7)"></path>
                <g id="Group" transform="translate(0.642922, 0.000000)"></g>
                <g id="Group" transform="translate(0.642922, 0.000000)"></g>
                <g id="Group" transform="translate(0.642922, 0.000000)"></g>
                <path d="M253.8501,44.8681302 C253.8501,44.8681302 253.58384,24.6842905 237.406895,26.4247245 C221.22995,28.1651586 222.470334,21.4826711 215.560551,22.2165109 C208.650768,22.9503506 200.62399,29.7692154 202.929416,38.1921369 C205.234841,46.6150584 196.831402,48.4983639 191.311369,54.8886144 C185.791336,61.2788648 192.6102,66.5066611 201.909833,72.7540401 C211.209466,79.001419 201.331853,77.384374 206.845392,87.2619866 C212.358932,97.1395993 231.023139,84.5214524 231.023139,84.5214524 L253.8501,44.8681302 Z" id="Path" fill="#3F3D56"></path>
                <path d="M121.895326,382.570785 L133.370501,382.960434 L133.370501,291.321386 C133.370501,291.321386 133.948481,267.624207 156.314357,265.247346 C178.680234,262.870484 381.518731,233.510401 381.518731,233.510401 C381.518731,233.510401 389.558497,232.659666 394.188831,248.076795 C398.819165,263.493923 403.32611,324.116878 403.32611,324.116878 L465.585593,332.500835 C465.585593,332.500835 467.228614,225.412187 444.745843,219.502504 C422.263072,213.592821 128.240117,243.706227 128.240117,243.706227 C128.240117,243.706227 106.432738,357.444891 121.895326,382.570785 Z" id="Path" fill="#01C2AE"></path>
                <path d="M121.895326,382.570785 L133.370501,382.960434 L133.370501,291.321386 C133.370501,291.321386 133.948481,267.624207 156.314357,265.247346 C178.680234,262.870484 381.518731,233.510401 381.518731,233.510401 C381.518731,233.510401 389.558497,232.659666 394.188831,248.076795 C398.819165,263.493923 403.32611,324.116878 403.32611,324.116878 L465.585593,332.500835 C465.585593,332.500835 467.228614,225.412187 444.745843,219.502504 C422.263072,213.592821 128.240117,243.706227 128.240117,243.706227 C128.240117,243.706227 106.432738,357.444891 121.895326,382.570785 Z" id="Path" fill="url(#linearGradient-8)"></path>
                <path d="M61.3438063,254.954107 C61.3438063,254.954107 66.9677462,223.834107 106.523656,215.677446 L385.746427,183.687229 C385.746427,183.687229 413.158264,182.550751 425.698481,190.142421 C438.238698,197.73409 456.136594,204.026928 463.474992,238.381018 C470.813389,272.735109 472.566811,331.422805 472.566811,331.422805 L465.624558,332.500835 C465.624558,332.500835 455.493673,226.230451 444.758831,219.502504 C434.02399,212.774558 143.780634,254.051419 143.780634,254.051419 C143.780634,254.051419 123.648748,258.058314 121.895326,287.892471 C120.141903,317.726628 121.895326,382.56429 121.895326,382.56429 L61.3438063,358.120284 L61.3438063,254.954107 Z" id="Path" fill="#01C2AE"></path>
                <path d="M348.612838,195.662454 C334.163339,193.779149 319.596945,192.415376 305.037045,192.967379 C294.094391,193.395993 283.223172,194.915626 272.371436,196.428765 L176.667045,209.813222 C175.043506,210.040518 173.192671,210.410684 172.380902,211.839399 C170.822304,214.566945 174.485008,217.255526 177.452838,218.294591 C209.274207,229.451553 243.271119,240.751386 276.027646,232.796043 C291.003172,229.159316 304.913656,221.606611 320.103489,218.982972 C335.293322,216.359332 350.885793,218.775159 366.043155,216.300885 C380.291336,213.975977 393.857629,207.371419 408.300634,207.306477 C412.729649,207.306477 417.288548,207.877963 421.490267,206.475225 C425.691987,205.072487 429.406644,200.786344 428.24419,196.513189 C414.684391,196.039115 399.462087,193.532371 386.162053,196.253422 C372.998397,198.942003 361.795977,195.662454 348.612838,195.662454 Z" id="Path" fill="url(#linearGradient-9)" opacity="0.19"></path>
                <path d="M262.065209,211.975776 L262.623706,214.112354 C262.623706,214.112354 279.15783,224.392604 279.053923,224.723806 C278.950017,225.055008 347.638715,208.313072 347.638715,208.313072 L349.236277,203.507396 L262.065209,211.975776 Z" id="Path" fill="#2F55D4"></path>
                <path d="M262.065209,211.975776 L262.623706,214.112354 C262.623706,214.112354 279.15783,224.392604 279.053923,224.723806 C278.950017,225.055008 347.638715,208.313072 347.638715,208.313072 L349.236277,203.507396 L262.065209,211.975776 Z" id="Path" fill="url(#linearGradient-10)"></path>
                <polygon id="Path" fill="#00C2AB" points="263.610818 211.975776 324.032454 198.357529 349.223289 203.507396 280.58005 220.775359"></polygon>
                <polygon id="Path" fill="url(#linearGradient-11)" points="263.610818 211.975776 324.032454 198.357529 349.223289 203.507396 280.58005 220.775359"></polygon>
                <path d="M244.589432,222.749583 L258.935025,223.23015 C258.935025,223.23015 262.578247,223.444457 263.5199,220.677947 C264.461553,217.911436 257.675159,212.073189 256.947813,211.962788 C256.220467,211.852387 237.341953,216.865876 240.063005,221.879366 L244.589432,222.749583 Z" id="Path" fill="#2F55D4"></path>
                <path d="M244.589432,222.749583 L258.935025,223.23015 C258.935025,223.23015 262.578247,223.444457 263.5199,220.677947 C264.461553,217.911436 257.675159,212.073189 256.947813,211.962788 C256.220467,211.852387 237.341953,216.865876 240.063005,221.879366 L244.589432,222.749583 Z" id="Path" fill="url(#linearGradient-12)"></path>
                <path d="M78.7741235,364.055943 L71.7929048,385.252871 C51.5441235,392.441903 34.3281135,385.252871 34.3281135,385.252871 L29.3211185,363.023372 C29.3211185,363.023372 54.5768948,371.394341 78.7741235,364.055943 Z" id="Path" fill="#01C2AE"></path>
                <path d="M78.7741235,364.055943 L71.7929048,385.252871 C51.5441235,392.441903 34.3281135,385.252871 34.3281135,385.252871 L29.3211185,363.023372 C29.3211185,363.023372 54.5768948,371.394341 78.7741235,364.055943 Z" id="Path" fill="url(#linearGradient-13)"></path>
                <path d="M86.6905008,344.3202 L84.4500167,361.075125 L78.7741235,364.049449 C54.5963773,371.387846 29.3211185,363.023372 29.3211185,363.023372 L24.9635392,359.776294 L22.9308681,344.3202 L86.6905008,344.3202 Z" id="Path" fill="#01C2AE"></path>
                <path d="M86.6905008,344.3202 L84.4500167,361.075125 L78.7741235,364.049449 C54.5963773,371.387846 29.3211185,363.023372 29.3211185,363.023372 L24.9635392,359.776294 L22.9308681,344.3202 L86.6905008,344.3202 Z" id="Path" fill="url(#linearGradient-14)"></path>
                <ellipse id="Oval" fill="#2F55D4" cx="54.8041903" cy="344.3202" rx="31.8733222" ry="5.73434057"></ellipse>
                <ellipse id="Oval" fill="url(#linearGradient-15)" cx="54.8041903" cy="344.3202" rx="31.8733222" ry="5.73434057"></ellipse>
                <path d="M39.6403339,216.372321 C36.5101503,214.891653 33.146177,213.774658 30.4381135,211.612104 C24.9830217,207.215559 23.5997663,199.643372 21.891803,192.850484 C20.1838397,186.057596 16.8783139,178.589316 10.1438731,176.641068 C7.62414023,175.920217 4.66929883,176.20596 2.75352254,177.998347 C0.733839733,179.888147 0.324707846,182.992354 0.876711185,185.732888 C1.42871452,188.473422 2.77300501,190.928214 3.81207012,193.525876 C6.23846637,199.559196 6.97705376,206.139135 5.94864775,212.56025 C5.09791319,217.827012 3.06524207,223.165209 4.37056761,228.328063 C6.58507513,237.088681 17.6186477,242.225559 17.9238731,251.252437 C18.1316861,257.343957 13.118197,262.980885 14.2546745,268.974992 C15.0924207,273.410501 19.1772454,276.871886 19.3980467,281.378831 C19.6448247,286.489733 14.813172,290.814841 15.0469616,295.925743 C15.2807513,301.036644 20.3851586,304.452571 23.7166611,308.472454 C26.5095778,311.848607 28.1702939,316.017436 28.4638898,320.389232 C28.6392321,323.116778 28.2885476,325.941736 29.1782471,328.526411 C29.8276628,330.41621 31.1264942,332.020267 32.1330885,333.721736 C33.2435893,335.559583 34.0813356,337.546795 35.4191319,339.248264 C38.8603271,343.585836 44.5983443,345.387007 49.9011018,343.794174 C50.9336728,337.001285 50.030985,330.07202 50.3167279,323.207696 C50.8817195,309.907663 55.9146912,296.503723 52.6935893,283.593339 C51.5116528,278.859098 49.2386978,274.365142 48.8360601,269.507513 C48.4788815,265.169416 49.6348414,260.870284 50.4401169,256.590634 C52.102621,247.752087 52.0766444,238.614808 51.3947579,229.678848 C50.8557429,222.587229 45.8682304,219.320668 39.6403339,216.372321 Z" id="Path" fill="#01C2AE"></path>
                <path d="M59.5449249,251.206978 C59.4929716,257.136144 60.8437563,263.266628 58.9474624,268.897062 C57.5122538,273.163723 54.3560935,276.657579 52.7260601,280.852805 C48.9659432,290.535593 54.0248915,301.393823 52.9923205,311.732521 C52.5637062,315.992688 51.1025209,320.084007 50.1803506,324.266244 C49.0350051,329.561177 48.7542908,335.006596 49.3490985,340.391235 C49.223214,342.417897 50.6074256,344.228446 52.596177,344.638414 C55.7781,345.852269 59.0743262,346.742141 62.4348247,347.294524 C61.2987786,341.025888 62.4952998,334.558206 65.798798,329.110885 C70.9486644,320.668481 80.9561603,314.979599 82.8199833,305.283823 C84.0798497,298.71823 81.1444908,292.055225 81.3523038,285.372738 C81.5019259,280.926265 83.0316862,276.636581 85.7293656,273.098781 C88.1516861,269.942621 91.4312354,267.500818 93.6847078,264.227763 C99.1008347,256.337362 97.4123539,245.790851 95.801803,236.354841 C94.1912521,226.918831 93.2560935,216.060601 99.6203673,208.910534 C101.633556,206.650568 104.257195,204.955593 106.082053,202.539766 C110.147396,197.15611 109.121319,188.863072 104.393573,184.050902 C99.6658264,179.238731 92.0546745,177.907429 85.6254591,180.024524 C82.9134989,180.823581 80.5198703,182.451884 78.7806177,184.680835 C75.5335392,189.291686 76.8323706,195.591018 78.2091319,201.072087 C79.4105509,205.832304 80.3781803,211.326361 78.7351586,216.125543 C77.5077629,219.697329 74.3970618,221.632588 71.7539399,224.11985 C64.1846049,231.123392 59.7792009,240.897296 59.5449249,251.206978 Z" id="Path" fill="#01C2AE"></path>
                <path d="M52.8364608,303.744708 C51.9142905,310.186912 50.5829883,316.681068 50.3102337,323.142755 L50.3102337,323.79217 C50.2956478,323.952453 50.25848,324.10987 50.1998331,324.25975 C49.0479808,329.553624 48.7606868,334.999052 49.3490985,340.384741 C49.384016,341.25712 49.6054588,342.111889 49.9985142,342.891486 C49.9660434,343.16424 49.9270785,343.430501 49.8881135,343.703255 C44.585356,345.296089 38.8473388,343.494918 35.4061436,339.157346 C34.1073122,337.455876 33.230601,335.468664 32.1201002,333.630818 C31.0810351,331.922855 29.8146745,330.318798 29.1652588,328.435492 C28.2755593,325.83783 28.6262437,323.02586 28.4509015,320.298314 C28.1573056,315.926518 26.4965895,311.757689 23.7036728,308.381536 C20.3721703,304.387629 15.2612688,301.036644 15.0339733,295.841319 C14.8066778,290.645993 19.6318364,286.405309 19.3850584,281.294407 C19.1642571,276.787462 15.0794324,273.326077 14.2416861,268.890568 C13.1052087,262.896461 18.1381803,257.259533 17.9108848,251.168013 C17.6056594,242.141135 6.57208681,237.004257 4.3575793,228.243639 C3.05874791,223.080785 5.08492487,217.742588 5.93565943,212.475826 C6.96868484,206.06339 6.23914004,199.490752 3.82505843,193.460935 C2.78599332,190.863272 1.44170284,188.414975 0.889699499,185.667947 C0.33769616,182.920918 0.746828047,179.823205 2.76651085,177.926912 C4.71475793,176.134524 7.63712855,175.848781 10.1568614,176.569633 C16.8977963,178.51788 20.1903339,186.012137 21.9047913,192.805025 C23.6192487,199.597913 24.99601,207.163606 30.4511018,211.566644 C33.146177,213.742187 36.5231386,214.846194 39.6533222,216.326861 C45.8877129,219.275209 50.8752254,222.54177 51.4077462,229.568447 C52.0571619,238.504407 52.1156093,247.641686 50.4531052,256.480234 C49.6478297,260.759883 48.5048581,265.059015 48.8490484,269.397112 C49.1932387,273.735209 51.0830384,277.839516 52.3169282,282.04773 C52.4533055,282.521803 52.5896828,283.002371 52.7065776,283.482938 C54.3431052,290.165426 53.8170785,296.925843 52.8364608,303.744708 Z" id="Path" fill="url(#linearGradient-16)"></path>
                <path d="M50.030985,342.891486 C49.6275525,342.116404 49.395029,341.263818 49.3490985,340.391235 C48.76495,335.004847 49.0566305,329.559413 50.2128214,324.266244 C50.2452922,324.110384 50.2842571,323.954524 50.323222,323.798664 C50.0894324,330.175927 50.8297663,336.605142 50.030985,342.891486 Z" id="Path" fill="url(#linearGradient-17)"></path>
                <path d="M105.991135,202.507295 C104.166277,204.923122 101.542638,206.618097 99.5294491,208.878063 C93.1651753,216.021636 94.1003339,226.886361 95.7108848,236.322371 C97.3214357,245.758381 99.0099165,256.304891 93.5937896,264.195292 C91.3403172,267.442371 88.0607679,269.91015 85.6384474,273.066311 C82.940768,276.604111 81.4110077,280.893795 81.2613856,285.340267 C81.0535726,292.022755 83.9889316,298.68576 82.7290651,305.251352 C80.8652421,314.947129 70.8577462,320.648998 65.7078798,329.078414 C62.4167532,334.530424 61.2297497,340.996591 62.3698831,347.262053 C59.0178352,346.709655 55.7302264,345.819759 52.557212,344.605943 C51.6893543,344.34821 50.9022308,343.871911 50.2712688,343.222688 C50.1817733,343.117116 50.1013907,343.004146 50.030985,342.884992 C49.6284448,342.111882 49.3959472,341.261605 49.3490985,340.391235 C48.76495,335.004847 49.0564718,329.559413 50.2128214,324.266244 C50.2452922,324.110384 50.2842571,323.954524 50.323222,323.798664 C51.2453923,319.778781 52.6091653,315.836828 53.0247913,311.732521 C53.2457503,309.07158 53.1935244,306.395003 52.8689316,303.744708 C53.8495492,296.925843 54.375576,290.165426 52.7195659,283.528397 C52.6026711,283.04783 52.4662938,282.567262 52.3299165,282.093189 C52.4533055,281.677563 52.596177,281.261937 52.7585309,280.852805 C54.3885643,276.657579 57.5447245,273.163723 58.9799332,268.897062 C60.8697329,263.266628 59.5254424,257.136144 59.5773957,251.206978 C59.6618197,240.965693 64.2791653,231.075092 71.6954925,224.087379 C74.3386144,221.600117 77.4493155,219.664858 78.6767112,216.093072 C80.3197329,211.29389 79.3261269,205.799833 78.1506845,201.039616 C76.767429,195.558548 75.4556093,189.259215 78.7221703,184.648364 C80.3457095,182.362421 82.9044073,180.875259 85.5670117,179.992053 C91.9702504,177.874958 99.6138731,179.20626 104.335125,184.018431 C109.056377,188.830601 110.056472,197.15611 105.991135,202.507295 Z" id="Path" fill="url(#linearGradient-18)"></path>
                <g id="Group" transform="translate(0.642922, 0.000000)"></g>
                <path d="M221.100067,100.659432 C221.100067,100.659432 193.779149,104.835175 181.141519,134.623873 C168.50389,164.412571 175.075977,201.318865 175.296778,204.565943 C175.517579,207.813022 214.021436,221.898848 225.029032,221.898848 C236.036628,221.898848 238.329065,210.995159 238.329065,210.995159 L218.879065,202.806027 L277.975893,196.058598 L288.587346,196.058598 L282.742604,205.799833 C282.742604,205.799833 294.276227,206.994758 301.984791,207.267513 C309.693356,207.540267 314.927646,192.467329 315.791369,184.973072 C316.655092,177.478815 281.742504,111.699499 276.527696,107.803005 C271.312888,103.906511 257.16212,94.3860768 221.100067,100.659432 Z" id="Path" fill="#00C2AB"></path>
                <path d="M253.8501,44.8681302 C253.8501,44.8681302 258.688247,47.6281469 258.253139,56.5576127 C257.81803,65.4870785 255.090484,78.9234891 252.336962,82.4043573 C249.583439,85.8852254 239.952604,87.2489983 239.952604,87.2489983 C239.952604,87.2489983 245.206377,99.9061102 249.11586,103.172671 C253.025342,106.439232 245.186895,118.472905 237.562755,114.524457 C229.938614,110.57601 221.100067,100.659432 221.100067,100.659432 C221.100067,100.659432 227.457846,88.7166778 225.30828,82.4303339 C223.158715,76.14399 214.9501,54.0833389 221.100067,48.0567613 C227.250033,42.0301836 240.511102,33.3929549 253.8501,44.8681302 Z" id="Path" fill="url(#linearGradient-19)"></path>
                <polygon id="Path" fill="#FFFFFF" opacity="0.25" points="210.040518 143.540351 205.754374 196.058598 218.846594 202.806027 229.490518 200.981169 216.209967 184.947095"></polygon>
                <path d="M279.053923,140.923205 C279.053923,140.923205 296.166027,181.648063 288.580851,196.091068 L282.73611,194.967579 L279.053923,140.923205 Z" id="Path" fill="#FFFFFF" opacity="0.25"></path>
                <path d="M231.217963,209.111853 C231.217963,209.111853 224.684841,214.956594 227.600718,219.502504 C230.516594,224.048414 233.997462,223.918531 236.900351,221.88586 C239.803239,219.853189 245.505109,215.02803 252.297997,217.242538 C259.090885,219.457045 260.740401,220.866277 260.740401,220.866277 C260.740401,220.866277 264.318681,218.521886 263.390017,216.171002 C262.461352,213.820117 255.356745,206.202471 253.298097,205.215359 C251.239449,204.228247 242.693139,207.261018 242.693139,207.261018 C242.693139,207.261018 236.413289,205.481619 231.217963,209.111853 Z" id="Path" fill="url(#linearGradient-20)"></path>
                <path d="M290.522604,198.143222 C290.522604,198.143222 284.301202,198.857579 282.729616,202.806027 C281.15803,206.754474 280.593038,207.235042 280.593038,207.235042 C280.593038,207.235042 284.106377,207.884457 285.567563,206.046611 C287.028748,204.208765 288.548381,204.981569 288.548381,204.981569 L288.113272,207.338948 C288.113272,207.338948 297.659683,208.728698 301.971803,207.235042 C306.283923,205.741386 308.134758,203.987963 308.134758,203.987963 L309.823239,200.000551 C309.823239,200.000551 305.751402,197.149616 302.679666,196.708013 C299.60793,196.266411 290.522604,198.143222 290.522604,198.143222 Z" id="Path" fill="url(#linearGradient-21)"></path>
                <path d="M322.103689,242.050217 C322.103689,242.050217 343.294124,258.181703 341.410818,280.00207 C339.527513,301.822437 336.761002,334.221786 336.761002,334.221786 C336.761002,334.221786 328.214691,337.819549 322.551786,334.221786 C316.888881,330.624023 313.459967,281.39182 310.654491,276.69005 C307.849015,271.98828 290.970701,250.791352 272.936427,248.966494 L322.103689,242.050217 Z" id="Path" fill="#25233A"></path>
                <path d="M215.242337,257.259533 C215.242337,257.259533 225.457646,267.000768 243.667262,270.059516 C261.876878,273.118264 270.364741,275.670467 275.930234,291.32788 C281.495726,306.985292 286.833923,340.683472 288.580851,344.450083 C290.32778,348.216694 297.757095,346.294424 297.757095,346.294424 C297.757095,346.294424 301.958815,341.47576 301.958815,314.680868 C301.958815,277.326477 304.556477,269.669866 295.198397,260.28581 C285.840317,250.901753 277.326477,248.343055 277.326477,248.343055 L215.242337,257.259533 Z" id="Path" fill="#3F3D56"></path>
                <path d="M288.580851,344.450083 L290.314791,358.120284 L293.56187,358.120284 C293.56187,358.120284 314.473055,359.263255 315.128965,358.769699 C315.784875,358.276144 314.122371,347.94394 306.199499,348.236177 C298.276628,348.528414 297.757095,346.28793 297.757095,346.28793 L288.580851,344.450083 Z" id="Path" fill="#25233A"></path>
                <path d="M325.10399,335.345275 L328.480952,348.801169 L365.380751,343.735726 C365.380751,343.735726 366.679583,334.897179 354.9901,335.77389 C351.905376,336.001185 349.606444,338.170234 345.89828,338.189716 C342.190117,338.209199 338.637813,336.689566 336.767496,334.221786 L336.767496,334.221786 L325.10399,335.345275 Z" id="Path" fill="#25233A"></path>
                <path d="M453.772721,166.068581 L314.102888,173.54985 C310.72516,173.726717 307.842373,171.134534 307.660684,167.757062 C307.660684,167.653155 307.660684,167.542755 307.660684,167.438848 L307.660684,68.4614023 C307.66332,64.4532079 310.868394,61.1817823 314.875693,61.0970284 L453.97404,58.226611 C455.758507,58.1900726 457.484366,58.8640977 458.771757,60.1003346 C460.059149,61.3365715 460.802559,63.0336981 460.838364,64.8181803 L460.838364,158.619783 C460.833787,162.584618 457.731793,165.854827 453.772721,166.068581 Z" id="Path" fill="#00C2AB"></path>
                <path d="M460.214925,166.068581 L320.545092,173.54985 C317.167434,173.72294 314.287669,171.127955 314.109378,167.750568 C314.109378,167.646661 314.109378,167.542755 314.109378,167.438848 L314.109378,68.4614023 C314.105018,64.4528557 317.310173,61.1783999 321.317896,61.0970284 L460.429232,58.226611 C464.137763,58.1577628 467.20244,61.1033392 467.280568,64.8116861 L467.280568,158.619783 C467.275991,162.584618 464.173997,165.854827 460.214925,166.068581 Z" id="Path" fill="#00C2AB"></path>
                <path d="M460.214925,166.068581 L320.545092,173.54985 C317.167434,173.72294 314.287669,171.127955 314.109378,167.750568 C314.109378,167.646661 314.109378,167.542755 314.109378,167.438848 L314.109378,68.4614023 C314.105018,64.4528557 317.310173,61.1783999 321.317896,61.0970284 L460.429232,58.226611 C464.137763,58.1577628 467.20244,61.1033392 467.280568,64.8116861 L467.280568,158.619783 C467.275991,162.584618 464.173997,165.854827 460.214925,166.068581 Z" id="Path" fill="url(#linearGradient-22)"></path>
                <path d="M419.548514,203.455442 L384.083923,207.235042 C384.083923,207.235042 373.28414,205.053005 373.868614,203.455442 C374.453088,201.85788 385.746427,200.318765 385.746427,200.318765 L385.746427,135.922705 L385.746427,135.922705 C385.649015,135.779833 384.161853,133.883539 380.090017,132.675626 L380.090017,132.675626 C379.301039,132.441277 378.498634,132.254772 377.687179,132.117129 C376.989456,132.015054 376.310901,131.809299 375.67399,131.506678 C373.251669,130.253306 375.927262,128.071269 379.687379,127.973856 C380.275978,127.953226 380.865213,127.988014 381.447295,128.077763 L408.722755,128.077763 C408.722755,128.077763 419.048464,130.987145 419.548514,145.50808 C420.048564,160.029015 419.548514,203.455442 419.548514,203.455442 Z" id="Path" fill="#00C2AB"></path>
                <path d="M390.688481,203.59182 L384.064441,207.235042 C384.064441,207.235042 373.264658,205.053005 373.849132,203.455442 C374.433606,201.85788 385.746427,200.318765 385.746427,200.318765 L385.746427,135.922705 L385.746427,135.922705 C385.61005,135.773339 383.95404,134.065376 380.090017,132.675626 L380.090017,132.675626 C378.651384,132.169331 377.174704,131.778445 375.67399,131.506678 C373.251669,130.253306 375.927262,128.071269 379.687379,127.973856 C382.888998,128.408965 389.194825,131.91581 389.603957,133.91601 C390.013088,135.91621 390.688481,203.59182 390.688481,203.59182 Z" id="Path" fill="#00C2AB"></path>
                <path d="M390.688481,203.59182 L384.064441,207.235042 C384.064441,207.235042 373.264658,205.053005 373.849132,203.455442 C374.433606,201.85788 385.746427,200.318765 385.746427,200.318765 L385.746427,135.922705 L385.746427,135.922705 C385.61005,135.773339 383.95404,134.065376 380.090017,132.675626 L380.090017,132.675626 C378.651384,132.169331 377.174704,131.778445 375.67399,131.506678 C373.251669,130.253306 375.927262,128.071269 379.687379,127.973856 C382.888998,128.408965 389.194825,131.91581 389.603957,133.91601 C390.013088,135.91621 390.688481,203.59182 390.688481,203.59182 Z" id="Path" fill="url(#linearGradient-23)"></path>
                <path d="M257.928431,338.865109 C257.103673,339.709349 256.720518,340.021068 257.207579,339.326194 C257.460133,339.192582 257.701234,339.038364 257.928431,338.865109 Z" id="Path" fill="url(#linearGradient-24)"></path>
            </g>
        </g>
    </g>
</svg>