<?xml version="1.0" encoding="UTF-8"?>
<svg width="17px" height="21px" viewBox="0 0 17 21" version="1.1" xmlns="http://www.w3.org/2000/svg" xmlns:xlink="http://www.w3.org/1999/xlink">
    <title>user-2</title>
    <g id="Page-1" stroke="none" stroke-width="1" fill="none" fill-rule="evenodd">
        <g id="20" transform="translate(-426.000000, -40.000000)">
            <g id="Group-4" transform="translate(401.000000, 30.000000)">
                <g transform="translate(13.000000, 0.000000)">
                    <g id="user-2" transform="translate(12.000000, 10.000000)">
                        <path d="M5.75199023,5.53710938 C5.75199023,3.44026758 7.12035352,1.66334766 9.01273242,1.04971289 C8.5540957,0.90103125 8.06486133,0.8203125 7.55667773,0.8203125 C4.95165234,0.8203125 2.83988086,2.93208398 2.83988086,5.53710938 C2.83988086,8.14213477 4.95165234,10.2539062 7.55667773,10.2539062 C8.06486133,10.2539062 8.5540957,10.1731875 9.01273242,10.0245059 C7.12035352,9.41087109 5.75199023,7.63395117 5.75199023,5.53710938 Z" id="Path" fill="#D4E1F4"></path>
                        <path d="M15.3398438,21 C14.8867852,21 14.5195312,20.6327461 14.5195312,20.1796875 C14.5195312,16.9682051 11.9067949,14.3554688 8.6953125,14.3554688 L7.46484375,14.3554688 C4.25336133,14.3554688 1.640625,16.9682051 1.640625,20.1796875 C1.640625,20.6327461 1.27337109,21 0.8203125,21 C0.367253906,21 0,20.6327461 0,20.1796875 C0,16.0635645 3.3487207,12.7148438 7.46484375,12.7148438 L8.6953125,12.7148438 C12.8114355,12.7148438 16.1601562,16.0635645 16.1601562,20.1796875 C16.1601562,20.6327461 15.7929023,21 15.3398438,21 Z M13.5351562,5.53710938 C13.5351562,2.48394727 11.051209,0 7.99804688,0 C4.94488477,0 2.4609375,2.48394727 2.4609375,5.53710938 C2.4609375,8.59027148 4.94488477,11.0742188 7.99804688,11.0742188 C11.051209,11.0742188 13.5351562,8.59027148 13.5351562,5.53710938 Z M11.8945312,5.53710938 C11.8945312,7.68563086 10.1465684,9.43359375 7.99804688,9.43359375 C5.84952539,9.43359375 4.1015625,7.68563086 4.1015625,5.53710938 C4.1015625,3.38858789 5.84952539,1.640625 7.99804688,1.640625 C10.1465684,1.640625 11.8945312,3.38858789 11.8945312,5.53710938 Z" id="Shape" fill="#2F55D4" fill-rule="nonzero"></path>
                        <path d="M8.0390625,21 C7.89682031,21 7.75461914,20.9630449 7.62738867,20.8892168 L4.30512305,18.9614824 C4.11403125,18.8506172 3.97576758,18.6673594 3.92154492,18.4531758 C3.86736328,18.2390332 3.90185742,18.0120527 4.01719336,17.823627 L5.24766211,15.8138613 C5.48419922,15.4274941 5.98922461,15.3060469 6.3755918,15.542584 C6.76195898,15.7791621 6.88340625,16.2841465 6.64682813,16.6705137 L5.85493945,17.9639824 L8.04398438,19.2341953 L10.2895488,17.9626289 L9.47862891,16.6808086 C9.23643164,16.2979687 9.35041406,15.7912207 9.73329492,15.5490234 C10.1160938,15.3067852 10.6228828,15.4208496 10.8650801,15.8036484 L12.1365645,17.8134141 C12.2566172,18.0031523 12.2936133,18.2337832 12.2390215,18.4515352 C12.1843887,18.6693281 12.0429258,18.8551699 11.8475273,18.9657891 L8.44323047,20.8935234 C8.3178457,20.9645215 8.17839258,21 8.0390625,21 Z" id="Path" fill="#2ECA8B"></path>
                    </g>
                </g>
            </g>
        </g>
    </g>
</svg>