<?xml version="1.0" encoding="UTF-8"?>
<svg width="31px" height="25px" viewBox="0 0 31 25" version="1.1" xmlns="http://www.w3.org/2000/svg" xmlns:xlink="http://www.w3.org/1999/xlink">
    <title>upload-cloud</title>
    <g id="Page-1" stroke="none" stroke-width="1" fill="none" fill-rule="evenodd" stroke-linecap="round" stroke-linejoin="round">
        <g id="7" transform="translate(-668.000000, -276.000000)" stroke-width="2">
            <g id="Group-Copy-13" transform="translate(373.000000, 160.000000)">
                <g id="Group-2" transform="translate(0.000000, 86.000000)">
                    <g id="upload-cloud" transform="translate(296.000000, 31.000000)">
                        <polyline id="Path" stroke="#000000" points="19.4444444 16.6111111 14.3333333 11.5 9.22222222 16.6111111"></polyline>
                        <line x1="14.3333333" y1="11.5" x2="14.3333333" y2="23" id="Path" stroke="#01BDB6"></line>
                        <path d="M25.0538889,19.665 C27.6176067,18.2673355 28.9075047,15.3093898 28.1872647,12.4796602 C27.4670247,9.64993067 24.9199506,7.66859451 22,7.66666667 L20.39,7.66666667 C19.3308259,3.56987442 15.8569955,0.549157888 11.6528156,0.0691290071 C7.44863568,-0.410899873 3.38328776,1.74900113 1.42787935,5.50159149 C-0.527529056,9.25418185 0.0312675264,13.8236427 2.83333333,16.9944444" id="Path" stroke="#01BDB6"></path>
                        <polyline id="Path" stroke="#01BDB6" points="19.4444444 16.6111111 14.3333333 11.5 9.22222222 16.6111111"></polyline>
                    </g>
                </g>
            </g>
        </g>
    </g>
</svg>