<svg xmlns="http://www.w3.org/2000/svg" width="41.796" height="13.174" viewBox="0 0 41.796 13.174">
  <g id="Visa_Inc._logo" transform="translate(-0.084 -0.163)">
    <path id="polygon9" d="M3.386,12.752H0L2.118,0H5.5Z" transform="translate(14.809 0.394)" fill="#0742a6"/>
    <path id="path11" d="M10.156.543A8.54,8.54,0,0,0,7.12,0c-3.344,0-5.7,1.736-5.713,4.219-.028,1.832,1.686,2.849,2.967,3.46C5.684,8.3,6.13,8.71,6.13,9.266c-.013.854-1.058,1.248-2.033,1.248A6.889,6.889,0,0,1,.92,9.836l-.446-.2L0,12.495a10.547,10.547,0,0,0,3.776.679c3.553,0,5.865-1.71,5.893-4.355.014-1.452-.891-2.564-2.842-3.473-1.184-.583-1.909-.977-1.909-1.574.014-.543.613-1.1,1.95-1.1a5.884,5.884,0,0,1,2.522.488L9.7,3.3l.46-2.754Z" transform="translate(20.313 0.163)" fill="#0742a6"/>
    <path id="path13" d="M9.014,12.752s-.307-1.465-.4-1.912H4.263l-.711,1.912H0L5.029,1.058A1.675,1.675,0,0,1,6.8,0H9.418l2.731,12.752Z" transform="translate(29.731 0.394)" fill="#0742a6"/>
    <path id="path15" d="M8.359,0,5.043,8.7,4.681,6.932A9.834,9.834,0,0,0,0,1.587L3.037,12.739h3.58L11.939,0H8.359Z" transform="translate(3.622 0.394)" fill="#0742a6"/>
    <path id="path17" d="M5.5,0H.056L0,.258C4.249,1.316,7.064,3.867,8.22,6.933L7.036,1.072A1.4,1.4,0,0,0,5.5,0Z" transform="translate(0.084 0.394)" fill="#0742a6"/>
  </g>
</svg>
