<?xml version="1.0" encoding="UTF-8"?>
<svg width="18px" height="17px" viewBox="0 0 18 17" version="1.1" xmlns="http://www.w3.org/2000/svg" xmlns:xlink="http://www.w3.org/1999/xlink">
    <title>whatsapp</title>
    <defs>
        <linearGradient x1="100%" y1="50%" x2="0%" y2="50%" id="linearGradient-1">
            <stop stop-color="#039BF9" offset="0%"></stop>
            <stop stop-color="#00C8A0" offset="100%"></stop>
        </linearGradient>
        <linearGradient x1="100%" y1="50%" x2="0%" y2="50%" id="linearGradient-2">
            <stop stop-color="#039BF9" offset="0%"></stop>
            <stop stop-color="#00C8A0" offset="100%"></stop>
        </linearGradient>
    </defs>
    <g id="Page-1" stroke="none" stroke-width="1" fill="none" fill-rule="evenodd">
        <g id="10" transform="translate(-713.000000, -497.000000)" fill-rule="nonzero">
            <g id="social-media" transform="translate(632.000000, 491.000000)">
                <g id="Group-13" transform="translate(75.600000, 0.000000)">
                    <g id="whatsapp" transform="translate(6.480000, 6.480000)">
                        <path d="M12.9724091,2.14759093 C11.5874396,0.762621467 9.74646605,0 7.78771364,0 C7.78759826,0 7.78713683,0 7.78702148,0 C6.81825804,0 5.87418089,0.187684944 4.98120666,0.557633042 C4.08811707,0.927581169 3.28800477,1.46248903 2.60290283,2.14759093 C1.21804871,3.53244508 0.455427246,5.37376465 0.455427246,7.33228636 C0.455427246,8.50027039 0.737243049,9.66098693 1.27122803,10.6951575 L0.0387597656,14.2160669 C-0.0481036303,14.4644293 0.0133813477,14.7343634 0.199566636,14.9204334 C0.329804085,15.0507861 0.501223748,15.12 0.677488396,15.12 C0.753046875,15.12 0.829412857,15.1073108 0.903933105,15.0812402 L4.42484254,13.8488873 C5.45901307,14.3828723 6.61972961,14.6646881 7.78771364,14.6646881 C9.74623535,14.6646881 11.5874396,13.9019513 12.9724091,12.5170972 C14.3572632,11.132243 15.12,9.29092345 15.12,7.33240174 C15.12,5.37376465 14.3573785,3.53244508 12.9724091,2.14759093 Z M12.3453314,11.8900195 C11.1279748,13.1074914 9.5092932,13.7778278 7.78771364,13.7778278 C6.73450928,13.7778278 5.68822633,13.5173529 4.76191406,13.0243195 C4.59395508,12.9350336 4.39542664,12.9196912 4.21720094,12.982099 L1.0183667,14.1016333 L2.13801637,10.9027991 C2.2004242,10.7243427 2.18496642,10.5258142 2.09568055,10.3579706 C1.60276247,9.43188905 1.34217225,8.38560607 1.34217225,7.33228636 C1.34217225,5.6107068 2.01262391,3.99202516 3.22998047,2.77466857 C4.44722168,1.55742736 6.06567262,0.886975701 7.78713683,0.886745003 L7.78771364,0.886745003 C9.50940858,0.886745003 11.1279748,1.55719666 12.3453314,2.77466857 C13.5628033,3.99202516 14.233255,5.61059142 14.233255,7.33228636 C14.233255,9.05398133 13.5628033,10.672663 12.3453314,11.8900195 Z" id="Shape" fill="url(#linearGradient-1)"></path>
                        <path d="M10.5126636,7.98728027 C10.1753613,7.64997803 9.62649535,7.64997803 9.28919313,7.98728027 L8.9202832,8.3561902 C8.00423768,7.85704285 7.26295715,7.11576232 6.76369445,6.1997168 L7.13260438,5.83080687 C7.47002197,5.49350465 7.47002197,4.94463867 7.13260438,4.60733643 L6.13846252,3.61319457 C5.80116027,3.27589235 5.25229432,3.27589235 4.91499207,3.61319457 L4.11972472,4.40846191 C3.66418213,4.86400451 3.64145692,5.64715941 4.05570192,6.61373107 C4.4153833,7.45294922 5.07360719,8.37533936 5.9091339,9.2108661 C6.74466064,10.0463928 7.66705078,10.7046167 8.50626893,11.0642981 C8.96550293,11.2610962 9.38320861,11.3592645 9.74415895,11.3592645 C10.1429462,11.3592645 10.4724042,11.2394092 10.7115381,11.0002753 L11.5068054,10.2048926 L11.5068054,10.2050079 C11.6702655,10.0415479 11.7602435,9.82433166 11.7602435,9.59327269 C11.7602435,9.3620984 11.6702655,9.14488221 11.5068054,8.98153748 L10.5126636,7.98728027 Z M10.0844604,10.3731976 C9.95445373,10.5032043 9.5546283,10.5487701 8.85568359,10.2493048 C8.11763304,9.93299744 7.29387267,9.34144959 6.53621154,8.58378846 C5.77855041,7.82612733 5.18711793,7.00248231 4.87081055,6.26443176 C4.57122987,5.56548708 4.61679567,5.16554627 4.74680236,5.03553955 L5.52684266,4.25549925 L6.49029969,5.21907166 L6.02852783,5.68095887 C5.81973265,5.88975402 5.76932189,6.20640746 5.90325075,6.46895875 C6.5103717,7.65943727 7.46056273,8.6096283 8.65104125,9.21674925 C8.91370789,9.35067811 9.23036133,9.3003827 9.43915648,9.09147217 L9.90092834,8.62970031 L10.8645007,9.59327269 L10.0844604,10.3731976 Z" id="Shape" fill="url(#linearGradient-2)"></path>
                    </g>
                </g>
            </g>
        </g>
    </g>
</svg>